<?xml version="1.0" encoding="UTF-8" standalone="no"?>
<!DOCTYPE svg PUBLIC "-//W3C//DTD SVG 1.1//EN"
 "http://www.w3.org/Graphics/SVG/1.1/DTD/svg11.dtd">
<!-- Generated by graphviz version 12.2.1 (20241206.2353)
 -->
<!-- Title: G Pages: 1 -->
<svg width="3087pt" height="890pt"
 viewBox="0.00 0.00 3087.00 889.90" xmlns="http://www.w3.org/2000/svg" xmlns:xlink="http://www.w3.org/1999/xlink">
<g id="graph0" class="graph" transform="scale(1 1) rotate(0) translate(4 885.9)">
<title>G</title>
<polygon fill="white" stroke="none" points="-4,4 -4,-885.9 3083,-885.9 3083,4 -4,4"/>
<g id="clust1" class="cluster">
<title>cluster_core</title>
<polygon fill="#f2f2f2" stroke="#f2f2f2" points="8,-471.7 8,-699.75 423,-699.75 423,-471.7 8,-471.7"/>
<text text-anchor="middle" x="215.5" y="-682.45" font-family="Arial" font-size="14.00">Core Application</text>
</g>
<g id="clust3" class="cluster">
<title>cluster_ui</title>
<polygon fill="lightgrey" stroke="lightgrey" points="1110,-292.8 1110,-873.9 3071,-873.9 3071,-292.8 1110,-292.8"/>
<text text-anchor="middle" x="2090.5" y="-856.6" font-family="Arial" font-size="14.00">UI Components</text>
</g>
<g id="clust4" class="cluster">
<title>cluster_viz</title>
<polygon fill="white" stroke="white" points="1576,-300.8 1576,-699.75 1746,-699.75 1746,-300.8 1576,-300.8"/>
<text text-anchor="middle" x="1661" y="-682.45" font-family="Arial" font-size="14.00">Visualization</text>
</g>
<g id="clust5" class="cluster">
<title>cluster_panels</title>
<polygon fill="white" stroke="white" points="1771,-756.5 1771,-842.15 3063,-842.15 3063,-756.5 1771,-756.5"/>
<text text-anchor="middle" x="2417" y="-824.85" font-family="Arial" font-size="14.00">Control Panels</text>
</g>
<g id="clust6" class="cluster">
<title>cluster_controls</title>
<polygon fill="white" stroke="white" points="1118,-756.5 1118,-842.15 1729,-842.15 1729,-756.5 1118,-756.5"/>
<text text-anchor="middle" x="1423.5" y="-824.85" font-family="Arial" font-size="14.00">Controls</text>
</g>
<g id="clust7" class="cluster">
<title>cluster_stores</title>
<polygon fill="lightblue" stroke="lightblue" points="431,-471.7 431,-557.35 1102,-557.35 1102,-471.7 431,-471.7"/>
<text text-anchor="middle" x="766.5" y="-540.05" font-family="Arial" font-size="14.00">State Management (Zustand)</text>
</g>
<g id="clust9" class="cluster">
<title>cluster_audio</title>
<polygon fill="lightgreen" stroke="lightgreen" points="232,-8 232,-418.2 1034,-418.2 1034,-8 232,-8"/>
<text text-anchor="middle" x="633" y="-400.9" font-family="Arial" font-size="14.00">Audio System</text>
</g>
<g id="clust10" class="cluster">
<title>cluster_audio_core</title>
<polygon fill="white" stroke="white" points="240,-158.4 240,-386.45 666,-386.45 666,-158.4 240,-158.4"/>
<text text-anchor="middle" x="453" y="-369.15" font-family="Arial" font-size="14.00">Core Audio</text>
</g>
<g id="clust11" class="cluster">
<title>cluster_audio_libs</title>
<polygon fill="white" stroke="white" points="709,-16 709,-244.05 883,-244.05 883,-16 709,-16"/>
<text text-anchor="middle" x="796" y="-226.75" font-family="Arial" font-size="14.00">Audio Libraries</text>
</g>
<g id="clust12" class="cluster">
<title>cluster_utils</title>
<polygon fill="lightyellow" stroke="lightyellow" points="1076,-158.4 1076,-244.05 2085,-244.05 2085,-158.4 1076,-158.4"/>
<text text-anchor="middle" x="1580.5" y="-226.75" font-family="Arial" font-size="14.00">Utilities &amp; Hooks</text>
</g>
<!-- App -->
<g id="node1" class="node">
<title>App</title>
<path fill="white" stroke="black" d="M148.22,-668C148.22,-668 27.78,-668 27.78,-668 21.78,-668 15.78,-662 15.78,-656 15.78,-656 15.78,-634.1 15.78,-634.1 15.78,-628.1 21.78,-622.1 27.78,-622.1 27.78,-622.1 148.22,-622.1 148.22,-622.1 154.22,-622.1 160.22,-628.1 160.22,-634.1 160.22,-634.1 160.22,-656 160.22,-656 160.22,-662 154.22,-668 148.22,-668"/>
<text text-anchor="middle" x="88" y="-647.5" font-family="Arial" font-size="14.00">App</text>
<text text-anchor="middle" x="88" y="-631.75" font-family="Arial" font-size="14.00">(Main Container)</text>
</g>
<!-- ErrorBoundary -->
<g id="node2" class="node">
<title>ErrorBoundary</title>
<path fill="white" stroke="black" d="M402.6,-668C402.6,-668 287.4,-668 287.4,-668 281.4,-668 275.4,-662 275.4,-656 275.4,-656 275.4,-634.1 275.4,-634.1 275.4,-628.1 281.4,-622.1 287.4,-622.1 287.4,-622.1 402.6,-622.1 402.6,-622.1 408.6,-622.1 414.6,-628.1 414.6,-634.1 414.6,-634.1 414.6,-656 414.6,-656 414.6,-662 408.6,-668 402.6,-668"/>
<text text-anchor="middle" x="345" y="-647.5" font-family="Arial" font-size="14.00">ErrorBoundary</text>
<text text-anchor="middle" x="345" y="-631.75" font-family="Arial" font-size="14.00">(Error Handling)</text>
</g>
<!-- App&#45;&gt;ErrorBoundary -->
<g id="edge1" class="edge">
<title>App&#45;&gt;ErrorBoundary</title>
<path fill="none" stroke="black" d="M160.62,-637C160.62,-637 263.71,-637 263.71,-637"/>
<polygon fill="black" stroke="black" points="263.71,-640.5 273.71,-637 263.71,-633.5 263.71,-640.5"/>
</g>
<!-- LoadingOverlay -->
<g id="node3" class="node">
<title>LoadingOverlay</title>
<path fill="white" stroke="black" d="M147.1,-525.6C147.1,-525.6 28.9,-525.6 28.9,-525.6 22.9,-525.6 16.9,-519.6 16.9,-513.6 16.9,-513.6 16.9,-491.7 16.9,-491.7 16.9,-485.7 22.9,-479.7 28.9,-479.7 28.9,-479.7 147.1,-479.7 147.1,-479.7 153.1,-479.7 159.1,-485.7 159.1,-491.7 159.1,-491.7 159.1,-513.6 159.1,-513.6 159.1,-519.6 153.1,-525.6 147.1,-525.6"/>
<text text-anchor="middle" x="88" y="-505.1" font-family="Arial" font-size="14.00">LoadingOverlay</text>
<text text-anchor="middle" x="88" y="-489.35" font-family="Arial" font-size="14.00">(Loading States)</text>
</g>
<!-- App&#45;&gt;LoadingOverlay -->
<g id="edge2" class="edge">
<title>App&#45;&gt;LoadingOverlay</title>
<path fill="none" stroke="black" d="M45.34,-621.85C45.34,-621.85 45.34,-537.35 45.34,-537.35"/>
<polygon fill="black" stroke="black" points="48.84,-537.35 45.34,-527.35 41.84,-537.35 48.84,-537.35"/>
<text text-anchor="middle" x="107.12" y="-570.55" font-family="Arial" font-size="9.00" fill="#4d4d4d">manages</text>
</g>
<!-- AudioStore -->
<g id="node16" class="node">
<title>AudioStore</title>
<path fill="white" stroke="black" d="M815.35,-525.6C815.35,-525.6 650.65,-525.6 650.65,-525.6 644.65,-525.6 638.65,-519.6 638.65,-513.6 638.65,-513.6 638.65,-491.7 638.65,-491.7 638.65,-485.7 644.65,-479.7 650.65,-479.7 650.65,-479.7 815.35,-479.7 815.35,-479.7 821.35,-479.7 827.35,-485.7 827.35,-491.7 827.35,-491.7 827.35,-513.6 827.35,-513.6 827.35,-519.6 821.35,-525.6 815.35,-525.6"/>
<text text-anchor="middle" x="733" y="-505.1" font-family="Arial" font-size="14.00">AudioStore</text>
<text text-anchor="middle" x="733" y="-489.35" font-family="Arial" font-size="14.00">(Audio State &amp; Controls)</text>
</g>
<!-- App&#45;&gt;AudioStore -->
<g id="edge3" class="edge">
<title>App&#45;&gt;AudioStore</title>
<path fill="none" stroke="black" d="M73.78,-621.82C73.78,-590.34 73.78,-538 73.78,-538 73.78,-538 670.1,-538 670.1,-538 670.1,-538 670.1,-536.8 670.1,-536.8"/>
<polygon fill="black" stroke="black" points="673.6,-537.55 670.1,-527.55 666.6,-537.55 673.6,-537.55"/>
<text text-anchor="middle" x="454.75" y="-570.55" font-family="Arial" font-size="9.00" fill="#4d4d4d">uses</text>
</g>
<!-- TransportStore -->
<g id="node17" class="node">
<title>TransportStore</title>
<path fill="white" stroke="black" d="M569.1,-525.6C569.1,-525.6 450.9,-525.6 450.9,-525.6 444.9,-525.6 438.9,-519.6 438.9,-513.6 438.9,-513.6 438.9,-491.7 438.9,-491.7 438.9,-485.7 444.9,-479.7 450.9,-479.7 450.9,-479.7 569.1,-479.7 569.1,-479.7 575.1,-479.7 581.1,-485.7 581.1,-491.7 581.1,-491.7 581.1,-513.6 581.1,-513.6 581.1,-519.6 575.1,-525.6 569.1,-525.6"/>
<text text-anchor="middle" x="510" y="-505.1" font-family="Arial" font-size="14.00">TransportStore</text>
<text text-anchor="middle" x="510" y="-489.35" font-family="Arial" font-size="14.00">(Playback State)</text>
</g>
<!-- App&#45;&gt;TransportStore -->
<g id="edge4" class="edge">
<title>App&#45;&gt;TransportStore</title>
<path fill="none" stroke="black" d="M160.59,-653C184.08,-653 204.19,-653 204.19,-653 204.19,-653 204.19,-510 204.19,-510 204.19,-510 427.17,-510 427.17,-510"/>
<polygon fill="black" stroke="black" points="427.17,-513.5 437.17,-510 427.17,-506.5 427.17,-513.5"/>
<text text-anchor="middle" x="369.75" y="-570.55" font-family="Arial" font-size="9.00" fill="#4d4d4d">uses</text>
</g>
<!-- VisualizationStore -->
<g id="node18" class="node">
<title>VisualizationStore</title>
<path fill="white" stroke="black" d="M1081.6,-525.6C1081.6,-525.6 954.4,-525.6 954.4,-525.6 948.4,-525.6 942.4,-519.6 942.4,-513.6 942.4,-513.6 942.4,-491.7 942.4,-491.7 942.4,-485.7 948.4,-479.7 954.4,-479.7 954.4,-479.7 1081.6,-479.7 1081.6,-479.7 1087.6,-479.7 1093.6,-485.7 1093.6,-491.7 1093.6,-491.7 1093.6,-513.6 1093.6,-513.6 1093.6,-519.6 1087.6,-525.6 1081.6,-525.6"/>
<text text-anchor="middle" x="1018" y="-505.1" font-family="Arial" font-size="14.00">VisualizationStore</text>
<text text-anchor="middle" x="1018" y="-489.35" font-family="Arial" font-size="14.00">(Visual State)</text>
</g>
<!-- App&#45;&gt;VisualizationStore -->
<g id="edge5" class="edge">
<title>App&#45;&gt;VisualizationStore</title>
<path fill="none" stroke="black" d="M102.22,-622.04C102.22,-593.91 102.22,-550 102.22,-550 102.22,-550 992.8,-550 992.8,-550 992.8,-550 992.8,-537.56 992.8,-537.56"/>
<polygon fill="black" stroke="black" points="996.3,-537.56 992.8,-527.56 989.3,-537.56 996.3,-537.56"/>
<text text-anchor="middle" x="538.75" y="-570.55" font-family="Arial" font-size="9.00" fill="#4d4d4d">uses</text>
</g>
<!-- UseKeyboardShortcuts -->
<g id="node28" class="node">
<title>UseKeyboardShortcuts</title>
<path fill="white" stroke="black" d="M1461.85,-212.3C1461.85,-212.3 1306.15,-212.3 1306.15,-212.3 1300.15,-212.3 1294.15,-206.3 1294.15,-200.3 1294.15,-200.3 1294.15,-178.4 1294.15,-178.4 1294.15,-172.4 1300.15,-166.4 1306.15,-166.4 1306.15,-166.4 1461.85,-166.4 1461.85,-166.4 1467.85,-166.4 1473.85,-172.4 1473.85,-178.4 1473.85,-178.4 1473.85,-200.3 1473.85,-200.3 1473.85,-206.3 1467.85,-212.3 1461.85,-212.3"/>
<text text-anchor="middle" x="1384" y="-191.8" font-family="Arial" font-size="14.00">useKeyboardShortcuts</text>
<text text-anchor="middle" x="1384" y="-176.05" font-family="Arial" font-size="14.00">(Controls Hook)</text>
</g>
<!-- App&#45;&gt;UseKeyboardShortcuts -->
<g id="edge26" class="edge">
<title>App&#45;&gt;UseKeyboardShortcuts</title>
<path fill="none" stroke="black" d="M130.66,-621.87C130.66,-615.35 130.66,-610 130.66,-610 130.66,-610 1316.34,-610 1316.34,-610 1316.34,-610 1316.34,-224.08 1316.34,-224.08"/>
<polygon fill="black" stroke="black" points="1319.84,-224.08 1316.34,-214.08 1312.84,-224.08 1319.84,-224.08"/>
<text text-anchor="middle" x="272.75" y="-428.15" font-family="Arial" font-size="9.00" fill="#4d4d4d">uses</text>
</g>
<!-- FractalComponent -->
<g id="node4" class="node">
<title>FractalComponent</title>
<path fill="white" stroke="black" d="M1726.47,-668C1726.47,-668 1595.53,-668 1595.53,-668 1589.53,-668 1583.53,-662 1583.53,-656 1583.53,-656 1583.53,-634.1 1583.53,-634.1 1583.53,-628.1 1589.53,-622.1 1595.53,-622.1 1595.53,-622.1 1726.47,-622.1 1726.47,-622.1 1732.47,-622.1 1738.47,-628.1 1738.47,-634.1 1738.47,-634.1 1738.47,-656 1738.47,-656 1738.47,-662 1732.47,-668 1726.47,-668"/>
<text text-anchor="middle" x="1661" y="-647.5" font-family="Arial" font-size="14.00">FractalComponent</text>
<text text-anchor="middle" x="1661" y="-631.75" font-family="Arial" font-size="14.00">(3D Visualization)</text>
</g>
<!-- SphereActivation -->
<g id="node5" class="node">
<title>SphereActivation</title>
<path fill="white" stroke="black" d="M1721.6,-525.6C1721.6,-525.6 1600.4,-525.6 1600.4,-525.6 1594.4,-525.6 1588.4,-519.6 1588.4,-513.6 1588.4,-513.6 1588.4,-491.7 1588.4,-491.7 1588.4,-485.7 1594.4,-479.7 1600.4,-479.7 1600.4,-479.7 1721.6,-479.7 1721.6,-479.7 1727.6,-479.7 1733.6,-485.7 1733.6,-491.7 1733.6,-491.7 1733.6,-513.6 1733.6,-513.6 1733.6,-519.6 1727.6,-525.6 1721.6,-525.6"/>
<text text-anchor="middle" x="1661" y="-505.1" font-family="Arial" font-size="14.00">SphereActivation</text>
<text text-anchor="middle" x="1661" y="-489.35" font-family="Arial" font-size="14.00">(Note Triggers)</text>
</g>
<!-- FractalComponent&#45;&gt;SphereActivation -->
<g id="edge8" class="edge">
<title>FractalComponent&#45;&gt;SphereActivation</title>
<path fill="none" stroke="black" d="M1661,-621.85C1661,-621.85 1661,-537.35 1661,-537.35"/>
<polygon fill="black" stroke="black" points="1664.5,-537.35 1661,-527.35 1657.5,-537.35 1664.5,-537.35"/>
<text text-anchor="middle" x="1676.38" y="-570.55" font-family="Arial" font-size="9.00" fill="#4d4d4d">triggers</text>
</g>
<!-- FractalComponent&#45;&gt;VisualizationStore -->
<g id="edge7" class="edge">
<title>FractalComponent&#45;&gt;VisualizationStore</title>
<path fill="none" stroke="black" d="M1583.07,-653C1416.98,-653 1043.2,-653 1043.2,-653 1043.2,-653 1043.2,-537.33 1043.2,-537.33"/>
<polygon fill="black" stroke="black" points="1046.7,-537.33 1043.2,-527.33 1039.7,-537.33 1046.7,-537.33"/>
<text text-anchor="middle" x="1400.25" y="-570.55" font-family="Arial" font-size="9.00" fill="#4d4d4d">updates/reads</text>
</g>
<!-- Geometry -->
<g id="node25" class="node">
<title>Geometry</title>
<path fill="white" stroke="black" d="M1853.35,-212.3C1853.35,-212.3 1730.65,-212.3 1730.65,-212.3 1724.65,-212.3 1718.65,-206.3 1718.65,-200.3 1718.65,-200.3 1718.65,-178.4 1718.65,-178.4 1718.65,-172.4 1724.65,-166.4 1730.65,-166.4 1730.65,-166.4 1853.35,-166.4 1853.35,-166.4 1859.35,-166.4 1865.35,-172.4 1865.35,-178.4 1865.35,-178.4 1865.35,-200.3 1865.35,-200.3 1865.35,-206.3 1859.35,-212.3 1853.35,-212.3"/>
<text text-anchor="middle" x="1792" y="-191.8" font-family="Arial" font-size="14.00">Geometry</text>
<text text-anchor="middle" x="1792" y="-176.05" font-family="Arial" font-size="14.00">(3D Calculations)</text>
</g>
<!-- FractalComponent&#45;&gt;Geometry -->
<g id="edge24" class="edge">
<title>FractalComponent&#45;&gt;Geometry</title>
<path fill="none" stroke="black" d="M1738.87,-637C1750.47,-637 1758.62,-637 1758.62,-637 1758.62,-637 1758.62,-224.3 1758.62,-224.3"/>
<polygon fill="black" stroke="black" points="1762.13,-224.3 1758.63,-214.3 1755.13,-224.3 1762.13,-224.3"/>
<text text-anchor="middle" x="1832.75" y="-428.15" font-family="Arial" font-size="9.00" fill="#4d4d4d">uses</text>
</g>
<!-- UseClockSync -->
<g id="node27" class="node">
<title>UseClockSync</title>
<path fill="white" stroke="black" d="M1648.35,-212.3C1648.35,-212.3 1543.65,-212.3 1543.65,-212.3 1537.65,-212.3 1531.65,-206.3 1531.65,-200.3 1531.65,-200.3 1531.65,-178.4 1531.65,-178.4 1531.65,-172.4 1537.65,-166.4 1543.65,-166.4 1543.65,-166.4 1648.35,-166.4 1648.35,-166.4 1654.35,-166.4 1660.35,-172.4 1660.35,-178.4 1660.35,-178.4 1660.35,-200.3 1660.35,-200.3 1660.35,-206.3 1654.35,-212.3 1648.35,-212.3"/>
<text text-anchor="middle" x="1596" y="-191.8" font-family="Arial" font-size="14.00">useClockSync</text>
<text text-anchor="middle" x="1596" y="-176.05" font-family="Arial" font-size="14.00">(Timing Hook)</text>
</g>
<!-- FractalComponent&#45;&gt;UseClockSync -->
<g id="edge27" class="edge">
<title>FractalComponent&#45;&gt;UseClockSync</title>
<path fill="none" stroke="black" d="M1583.05,-637C1575.44,-637 1570.46,-637 1570.46,-637 1570.46,-637 1570.46,-224.3 1570.46,-224.3"/>
<polygon fill="black" stroke="black" points="1573.96,-224.3 1570.46,-214.3 1566.96,-224.3 1573.96,-224.3"/>
<text text-anchor="middle" x="1508.75" y="-428.15" font-family="Arial" font-size="9.00" fill="#4d4d4d">uses</text>
</g>
<!-- SyncedAnimation -->
<g id="node6" class="node">
<title>SyncedAnimation</title>
<path fill="white" stroke="black" d="M1723.47,-354.7C1723.47,-354.7 1598.53,-354.7 1598.53,-354.7 1592.53,-354.7 1586.53,-348.7 1586.53,-342.7 1586.53,-342.7 1586.53,-320.8 1586.53,-320.8 1586.53,-314.8 1592.53,-308.8 1598.53,-308.8 1598.53,-308.8 1723.47,-308.8 1723.47,-308.8 1729.47,-308.8 1735.47,-314.8 1735.47,-320.8 1735.47,-320.8 1735.47,-342.7 1735.47,-342.7 1735.47,-348.7 1729.47,-354.7 1723.47,-354.7"/>
<text text-anchor="middle" x="1661" y="-334.2" font-family="Arial" font-size="14.00">SyncedAnimation</text>
<text text-anchor="middle" x="1661" y="-318.45" font-family="Arial" font-size="14.00">(Animation Sync)</text>
</g>
<!-- SphereActivation&#45;&gt;SyncedAnimation -->
<g id="edge9" class="edge">
<title>SphereActivation&#45;&gt;SyncedAnimation</title>
<path fill="none" stroke="black" d="M1661,-479.25C1661,-479.25 1661,-366.66 1661,-366.66"/>
<polygon fill="black" stroke="black" points="1664.5,-366.66 1661,-356.66 1657.5,-366.66 1664.5,-366.66"/>
<text text-anchor="middle" x="1670.75" y="-428.15" font-family="Arial" font-size="9.00" fill="#4d4d4d">uses</text>
</g>
<!-- FractalPanel -->
<g id="node7" class="node">
<title>FractalPanel</title>
<path fill="white" stroke="black" d="M2604.85,-810.4C2604.85,-810.4 2467.15,-810.4 2467.15,-810.4 2461.15,-810.4 2455.15,-804.4 2455.15,-798.4 2455.15,-798.4 2455.15,-776.5 2455.15,-776.5 2455.15,-770.5 2461.15,-764.5 2467.15,-764.5 2467.15,-764.5 2604.85,-764.5 2604.85,-764.5 2610.85,-764.5 2616.85,-770.5 2616.85,-776.5 2616.85,-776.5 2616.85,-798.4 2616.85,-798.4 2616.85,-804.4 2610.85,-810.4 2604.85,-810.4"/>
<text text-anchor="middle" x="2536" y="-789.9" font-family="Arial" font-size="14.00">FractalPanel</text>
<text text-anchor="middle" x="2536" y="-774.15" font-family="Arial" font-size="14.00">(Main Visualization)</text>
</g>
<!-- FractalPanel&#45;&gt;FractalComponent -->
<g id="edge6" class="edge">
<title>FractalPanel&#45;&gt;FractalComponent</title>
<path fill="none" stroke="black" d="M2536,-764.03C2536,-725.51 2536,-653 2536,-653 2536,-653 1750.16,-653 1750.16,-653"/>
<polygon fill="black" stroke="black" points="1750.16,-649.5 1740.16,-653 1750.16,-656.5 1750.16,-649.5"/>
<text text-anchor="middle" x="1828.25" y="-712.95" font-family="Arial" font-size="9.00" fill="#4d4d4d">contains</text>
</g>
<!-- AudioVizPanel -->
<g id="node8" class="node">
<title>AudioVizPanel</title>
<path fill="white" stroke="black" d="M2829.1,-810.4C2829.1,-810.4 2686.9,-810.4 2686.9,-810.4 2680.9,-810.4 2674.9,-804.4 2674.9,-798.4 2674.9,-798.4 2674.9,-776.5 2674.9,-776.5 2674.9,-770.5 2680.9,-764.5 2686.9,-764.5 2686.9,-764.5 2829.1,-764.5 2829.1,-764.5 2835.1,-764.5 2841.1,-770.5 2841.1,-776.5 2841.1,-776.5 2841.1,-798.4 2841.1,-798.4 2841.1,-804.4 2835.1,-810.4 2829.1,-810.4"/>
<text text-anchor="middle" x="2758" y="-789.9" font-family="Arial" font-size="14.00">AudioVizPanel</text>
<text text-anchor="middle" x="2758" y="-774.15" font-family="Arial" font-size="14.00">(Audio Visualization)</text>
</g>
<!-- AudioVizPanel&#45;&gt;AudioStore -->
<g id="edge14" class="edge">
<title>AudioVizPanel&#45;&gt;AudioStore</title>
<path fill="none" stroke="black" d="M2730.3,-764.17C2730.3,-706.57 2730.3,-562 2730.3,-562 2730.3,-562 795.9,-562 795.9,-562 795.9,-562 795.9,-537.28 795.9,-537.28"/>
<polygon fill="black" stroke="black" points="799.4,-537.28 795.9,-527.28 792.4,-537.28 799.4,-537.28"/>
<text text-anchor="middle" x="1248.62" y="-641.75" font-family="Arial" font-size="9.00" fill="#4d4d4d">reads</text>
</g>
<!-- UseAudioManager -->
<g id="node26" class="node">
<title>UseAudioManager</title>
<path fill="white" stroke="black" d="M2064.72,-212.3C2064.72,-212.3 1935.28,-212.3 1935.28,-212.3 1929.28,-212.3 1923.28,-206.3 1923.28,-200.3 1923.28,-200.3 1923.28,-178.4 1923.28,-178.4 1923.28,-172.4 1929.28,-166.4 1935.28,-166.4 1935.28,-166.4 2064.72,-166.4 2064.72,-166.4 2070.72,-166.4 2076.72,-172.4 2076.72,-178.4 2076.72,-178.4 2076.72,-200.3 2076.72,-200.3 2076.72,-206.3 2070.72,-212.3 2064.72,-212.3"/>
<text text-anchor="middle" x="2000" y="-191.8" font-family="Arial" font-size="14.00">useAudioManager</text>
<text text-anchor="middle" x="2000" y="-176.05" font-family="Arial" font-size="14.00">(Audio Hook)</text>
</g>
<!-- AudioVizPanel&#45;&gt;UseAudioManager -->
<g id="edge28" class="edge">
<title>AudioVizPanel&#45;&gt;UseAudioManager</title>
<path fill="none" stroke="black" d="M2785.7,-764.36C2785.7,-654.38 2785.7,-189 2785.7,-189 2785.7,-189 2088.64,-189 2088.64,-189"/>
<polygon fill="black" stroke="black" points="2088.64,-185.5 2078.64,-189 2088.64,-192.5 2088.64,-185.5"/>
<text text-anchor="middle" x="2388.75" y="-499.35" font-family="Arial" font-size="9.00" fill="#4d4d4d">uses</text>
</g>
<!-- GlobalControlsPanel -->
<g id="node9" class="node">
<title>GlobalControlsPanel</title>
<path fill="white" stroke="black" d="M2154.85,-810.4C2154.85,-810.4 2011.15,-810.4 2011.15,-810.4 2005.15,-810.4 1999.15,-804.4 1999.15,-798.4 1999.15,-798.4 1999.15,-776.5 1999.15,-776.5 1999.15,-770.5 2005.15,-764.5 2011.15,-764.5 2011.15,-764.5 2154.85,-764.5 2154.85,-764.5 2160.85,-764.5 2166.85,-770.5 2166.85,-776.5 2166.85,-776.5 2166.85,-798.4 2166.85,-798.4 2166.85,-804.4 2160.85,-810.4 2154.85,-810.4"/>
<text text-anchor="middle" x="2083" y="-789.9" font-family="Arial" font-size="14.00">GlobalControlsPanel</text>
<text text-anchor="middle" x="2083" y="-774.15" font-family="Arial" font-size="14.00">(Global Settings)</text>
</g>
<!-- GlobalControlsPanel&#45;&gt;AudioStore -->
<g id="edge13" class="edge">
<title>GlobalControlsPanel&#45;&gt;AudioStore</title>
<path fill="none" stroke="black" d="M2037.94,-764.34C2037.94,-711.43 2037.94,-586 2037.94,-586 2037.94,-586 733,-586 733,-586 733,-586 733,-537.38 733,-537.38"/>
<polygon fill="black" stroke="black" points="736.5,-537.38 733,-527.38 729.5,-537.38 736.5,-537.38"/>
<text text-anchor="middle" x="936.38" y="-641.75" font-family="Arial" font-size="9.00" fill="#4d4d4d">configures</text>
</g>
<!-- StepSequencerPanel -->
<g id="node10" class="node">
<title>StepSequencerPanel</title>
<path fill="white" stroke="black" d="M2384.72,-810.4C2384.72,-810.4 2237.28,-810.4 2237.28,-810.4 2231.28,-810.4 2225.28,-804.4 2225.28,-798.4 2225.28,-798.4 2225.28,-776.5 2225.28,-776.5 2225.28,-770.5 2231.28,-764.5 2237.28,-764.5 2237.28,-764.5 2384.72,-764.5 2384.72,-764.5 2390.72,-764.5 2396.72,-770.5 2396.72,-776.5 2396.72,-776.5 2396.72,-798.4 2396.72,-798.4 2396.72,-804.4 2390.72,-810.4 2384.72,-810.4"/>
<text text-anchor="middle" x="2311" y="-789.9" font-family="Arial" font-size="14.00">StepSequencerPanel</text>
<text text-anchor="middle" x="2311" y="-774.15" font-family="Arial" font-size="14.00">(Sequencer Controls)</text>
</g>
<!-- StepSequencerPanel&#45;&gt;AudioStore -->
<g id="edge10" class="edge">
<title>StepSequencerPanel&#45;&gt;AudioStore</title>
<path fill="none" stroke="black" d="M2311,-764.2C2311,-708.88 2311,-574 2311,-574 2311,-574 764.45,-574 764.45,-574 764.45,-574 764.45,-537.53 764.45,-537.53"/>
<polygon fill="black" stroke="black" points="767.95,-537.53 764.45,-527.53 760.95,-537.53 767.95,-537.53"/>
<text text-anchor="middle" x="1100.12" y="-641.75" font-family="Arial" font-size="9.00" fill="#4d4d4d">controls</text>
</g>
<!-- SynthControlsPanel -->
<g id="node11" class="node">
<title>SynthControlsPanel</title>
<path fill="white" stroke="black" d="M1929.22,-810.4C1929.22,-810.4 1790.78,-810.4 1790.78,-810.4 1784.78,-810.4 1778.78,-804.4 1778.78,-798.4 1778.78,-798.4 1778.78,-776.5 1778.78,-776.5 1778.78,-770.5 1784.78,-764.5 1790.78,-764.5 1790.78,-764.5 1929.22,-764.5 1929.22,-764.5 1935.22,-764.5 1941.22,-770.5 1941.22,-776.5 1941.22,-776.5 1941.22,-798.4 1941.22,-798.4 1941.22,-804.4 1935.22,-810.4 1929.22,-810.4"/>
<text text-anchor="middle" x="1860" y="-789.9" font-family="Arial" font-size="14.00">SynthControlsPanel</text>
<text text-anchor="middle" x="1860" y="-774.15" font-family="Arial" font-size="14.00">(Synth Parameters)</text>
</g>
<!-- SynthControlsPanel&#45;&gt;AudioStore -->
<g id="edge11" class="edge">
<title>SynthControlsPanel&#45;&gt;AudioStore</title>
<path fill="none" stroke="black" d="M1822.06,-764.22C1822.06,-713.63 1822.06,-598 1822.06,-598 1822.06,-598 701.55,-598 701.55,-598 701.55,-598 701.55,-537.25 701.55,-537.25"/>
<polygon fill="black" stroke="black" points="705.05,-537.25 701.55,-527.25 698.05,-537.25 705.05,-537.25"/>
<text text-anchor="middle" x="757.38" y="-641.75" font-family="Arial" font-size="9.00" fill="#4d4d4d">configures</text>
</g>
<!-- StepControlsPanel -->
<g id="node12" class="node">
<title>StepControlsPanel</title>
<path fill="white" stroke="black" d="M3042.85,-810.4C3042.85,-810.4 2911.15,-810.4 2911.15,-810.4 2905.15,-810.4 2899.15,-804.4 2899.15,-798.4 2899.15,-798.4 2899.15,-776.5 2899.15,-776.5 2899.15,-770.5 2905.15,-764.5 2911.15,-764.5 2911.15,-764.5 3042.85,-764.5 3042.85,-764.5 3048.85,-764.5 3054.85,-770.5 3054.85,-776.5 3054.85,-776.5 3054.85,-798.4 3054.85,-798.4 3054.85,-804.4 3048.85,-810.4 3042.85,-810.4"/>
<text text-anchor="middle" x="2977" y="-789.9" font-family="Arial" font-size="14.00">StepControlsPanel</text>
<text text-anchor="middle" x="2977" y="-774.15" font-family="Arial" font-size="14.00">(Step Settings)</text>
</g>
<!-- TransportControls -->
<g id="node13" class="node">
<title>TransportControls</title>
<path fill="white" stroke="black" d="M1268.1,-810.4C1268.1,-810.4 1137.9,-810.4 1137.9,-810.4 1131.9,-810.4 1125.9,-804.4 1125.9,-798.4 1125.9,-798.4 1125.9,-776.5 1125.9,-776.5 1125.9,-770.5 1131.9,-764.5 1137.9,-764.5 1137.9,-764.5 1268.1,-764.5 1268.1,-764.5 1274.1,-764.5 1280.1,-770.5 1280.1,-776.5 1280.1,-776.5 1280.1,-798.4 1280.1,-798.4 1280.1,-804.4 1274.1,-810.4 1268.1,-810.4"/>
<text text-anchor="middle" x="1203" y="-789.9" font-family="Arial" font-size="14.00">TransportControls</text>
<text text-anchor="middle" x="1203" y="-774.15" font-family="Arial" font-size="14.00">(Playback Control)</text>
</g>
<!-- TransportControls&#45;&gt;TransportStore -->
<g id="edge12" class="edge">
<title>TransportControls&#45;&gt;TransportStore</title>
<path fill="none" stroke="black" d="M1125.52,-787C944.69,-787 510,-787 510,-787 510,-787 510,-537.43 510,-537.43"/>
<polygon fill="black" stroke="black" points="513.5,-537.43 510,-527.43 506.5,-537.43 513.5,-537.43"/>
<text text-anchor="middle" x="600.12" y="-641.75" font-family="Arial" font-size="9.00" fill="#4d4d4d">controls</text>
</g>
<!-- SelectControl -->
<g id="node14" class="node">
<title>SelectControl</title>
<path fill="white" stroke="black" d="M1487.47,-810.4C1487.47,-810.4 1350.53,-810.4 1350.53,-810.4 1344.53,-810.4 1338.53,-804.4 1338.53,-798.4 1338.53,-798.4 1338.53,-776.5 1338.53,-776.5 1338.53,-770.5 1344.53,-764.5 1350.53,-764.5 1350.53,-764.5 1487.47,-764.5 1487.47,-764.5 1493.47,-764.5 1499.47,-770.5 1499.47,-776.5 1499.47,-776.5 1499.47,-798.4 1499.47,-798.4 1499.47,-804.4 1493.47,-810.4 1487.47,-810.4"/>
<text text-anchor="middle" x="1419" y="-789.9" font-family="Arial" font-size="14.00">SelectControl</text>
<text text-anchor="middle" x="1419" y="-774.15" font-family="Arial" font-size="14.00">(Dropdown Control)</text>
</g>
<!-- SliderControl -->
<g id="node15" class="node">
<title>SliderControl</title>
<path fill="white" stroke="black" d="M1708.6,-810.4C1708.6,-810.4 1569.4,-810.4 1569.4,-810.4 1563.4,-810.4 1557.4,-804.4 1557.4,-798.4 1557.4,-798.4 1557.4,-776.5 1557.4,-776.5 1557.4,-770.5 1563.4,-764.5 1569.4,-764.5 1569.4,-764.5 1708.6,-764.5 1708.6,-764.5 1714.6,-764.5 1720.6,-770.5 1720.6,-776.5 1720.6,-776.5 1720.6,-798.4 1720.6,-798.4 1720.6,-804.4 1714.6,-810.4 1708.6,-810.4"/>
<text text-anchor="middle" x="1639" y="-789.9" font-family="Arial" font-size="14.00">SliderControl</text>
<text text-anchor="middle" x="1639" y="-774.15" font-family="Arial" font-size="14.00">(Parameter Control)</text>
</g>
<!-- AudioManager -->
<g id="node19" class="node">
<title>AudioManager</title>
<path fill="white" stroke="black" d="M646.1,-354.7C646.1,-354.7 449.9,-354.7 449.9,-354.7 443.9,-354.7 437.9,-348.7 437.9,-342.7 437.9,-342.7 437.9,-320.8 437.9,-320.8 437.9,-314.8 443.9,-308.8 449.9,-308.8 449.9,-308.8 646.1,-308.8 646.1,-308.8 652.1,-308.8 658.1,-314.8 658.1,-320.8 658.1,-320.8 658.1,-342.7 658.1,-342.7 658.1,-348.7 652.1,-354.7 646.1,-354.7"/>
<text text-anchor="middle" x="548" y="-334.2" font-family="Arial" font-size="14.00">AudioManager</text>
<text text-anchor="middle" x="548" y="-318.45" font-family="Arial" font-size="14.00">(Audio Context &amp; Scheduling)</text>
</g>
<!-- AudioStore&#45;&gt;AudioManager -->
<g id="edge15" class="edge">
<title>AudioStore&#45;&gt;AudioManager</title>
<path fill="none" stroke="black" d="M648.38,-479.25C648.38,-479.25 648.38,-366.66 648.38,-366.66"/>
<polygon fill="black" stroke="black" points="651.88,-366.66 648.38,-356.66 644.88,-366.66 651.88,-366.66"/>
<text text-anchor="middle" x="679.12" y="-428.15" font-family="Arial" font-size="9.00" fill="#4d4d4d">controls</text>
</g>
<!-- TransportStore&#45;&gt;AudioManager -->
<g id="edge16" class="edge">
<title>TransportStore&#45;&gt;AudioManager</title>
<path fill="none" stroke="black" d="M510,-479.25C510,-479.25 510,-366.66 510,-366.66"/>
<polygon fill="black" stroke="black" points="513.5,-366.66 510,-356.66 506.5,-366.66 513.5,-366.66"/>
<text text-anchor="middle" x="538.38" y="-428.15" font-family="Arial" font-size="9.00" fill="#4d4d4d">sync</text>
</g>
<!-- ClockSync -->
<g id="node20" class="node">
<title>ClockSync</title>
<path fill="white" stroke="black" d="M409.85,-212.3C409.85,-212.3 260.15,-212.3 260.15,-212.3 254.15,-212.3 248.15,-206.3 248.15,-200.3 248.15,-200.3 248.15,-178.4 248.15,-178.4 248.15,-172.4 254.15,-166.4 260.15,-166.4 260.15,-166.4 409.85,-166.4 409.85,-166.4 415.85,-166.4 421.85,-172.4 421.85,-178.4 421.85,-178.4 421.85,-200.3 421.85,-200.3 421.85,-206.3 415.85,-212.3 409.85,-212.3"/>
<text text-anchor="middle" x="335" y="-191.8" font-family="Arial" font-size="14.00">ClockSync</text>
<text text-anchor="middle" x="335" y="-176.05" font-family="Arial" font-size="14.00">(Timing Coordination)</text>
</g>
<!-- TransportStore&#45;&gt;ClockSync -->
<g id="edge17" class="edge">
<title>TransportStore&#45;&gt;ClockSync</title>
<path fill="none" stroke="black" d="M438.58,-495C426.1,-495 417.02,-495 417.02,-495 417.02,-495 417.02,-224.09 417.02,-224.09"/>
<polygon fill="black" stroke="black" points="420.52,-224.09 417.02,-214.09 413.52,-224.09 420.52,-224.09"/>
<text text-anchor="middle" x="349.12" y="-328.45" font-family="Arial" font-size="9.00" fill="#4d4d4d">provides timing</text>
</g>
<!-- VisualizationStore&#45;&gt;AudioStore -->
<g id="edge18" class="edge">
<title>VisualizationStore&#45;&gt;AudioStore</title>
<path fill="none" stroke="black" d="M942,-503C942,-503 839.16,-503 839.16,-503"/>
<polygon fill="black" stroke="black" points="839.16,-499.5 829.16,-503 839.16,-506.5 839.16,-499.5"/>
</g>
<!-- AudioManager&#45;&gt;ClockSync -->
<g id="edge20" class="edge">
<title>AudioManager&#45;&gt;ClockSync</title>
<path fill="none" stroke="black" d="M437.58,-332C426.61,-332 419.43,-332 419.43,-332 419.43,-332 419.43,-224.1 419.43,-224.1"/>
<polygon fill="black" stroke="black" points="422.93,-224.1 419.43,-214.1 415.93,-224.1 422.93,-224.1"/>
<text text-anchor="middle" x="458" y="-257.25" font-family="Arial" font-size="9.00" fill="#4d4d4d">syncs with</text>
</g>
<!-- SphereActivationClock -->
<g id="node21" class="node">
<title>SphereActivationClock</title>
<path fill="white" stroke="black" d="M646.48,-212.3C646.48,-212.3 491.52,-212.3 491.52,-212.3 485.52,-212.3 479.52,-206.3 479.52,-200.3 479.52,-200.3 479.52,-178.4 479.52,-178.4 479.52,-172.4 485.52,-166.4 491.52,-166.4 491.52,-166.4 646.48,-166.4 646.48,-166.4 652.48,-166.4 658.48,-172.4 658.48,-178.4 658.48,-178.4 658.48,-200.3 658.48,-200.3 658.48,-206.3 652.48,-212.3 646.48,-212.3"/>
<text text-anchor="middle" x="569" y="-191.8" font-family="Arial" font-size="14.00">SphereActivationClock</text>
<text text-anchor="middle" x="569" y="-176.05" font-family="Arial" font-size="14.00">(Visual&#45;Audio Sync)</text>
</g>
<!-- AudioManager&#45;&gt;SphereActivationClock -->
<g id="edge21" class="edge">
<title>AudioManager&#45;&gt;SphereActivationClock</title>
<path fill="none" stroke="black" d="M568.81,-308.55C568.81,-308.55 568.81,-224.05 568.81,-224.05"/>
<polygon fill="black" stroke="black" points="572.31,-224.05 568.81,-214.05 565.31,-224.05 572.31,-224.05"/>
<text text-anchor="middle" x="582" y="-257.25" font-family="Arial" font-size="9.00" fill="#4d4d4d">coordinates</text>
</g>
<!-- ToneJS -->
<g id="node22" class="node">
<title>ToneJS</title>
<path fill="white" stroke="black" d="M861.23,-212.3C861.23,-212.3 728.77,-212.3 728.77,-212.3 722.77,-212.3 716.77,-206.3 716.77,-200.3 716.77,-200.3 716.77,-178.4 716.77,-178.4 716.77,-172.4 722.77,-166.4 728.77,-166.4 728.77,-166.4 861.23,-166.4 861.23,-166.4 867.23,-166.4 873.23,-172.4 873.23,-178.4 873.23,-178.4 873.23,-200.3 873.23,-200.3 873.23,-206.3 867.23,-212.3 861.23,-212.3"/>
<text text-anchor="middle" x="795" y="-191.8" font-family="Arial" font-size="14.00">Tone.js</text>
<text text-anchor="middle" x="795" y="-176.05" font-family="Arial" font-size="14.00">(Synthesis Engine)</text>
</g>
<!-- AudioManager&#45;&gt;ToneJS -->
<g id="edge19" class="edge">
<title>AudioManager&#45;&gt;ToneJS</title>
<path fill="none" stroke="black" d="M658.39,-324C714.95,-324 772.06,-324 772.06,-324 772.06,-324 772.06,-224.01 772.06,-224.01"/>
<polygon fill="black" stroke="black" points="775.56,-224.01 772.06,-214.01 768.56,-224.01 775.56,-224.01"/>
<text text-anchor="middle" x="748" y="-257.25" font-family="Arial" font-size="9.00" fill="#4d4d4d">schedules</text>
</g>
<!-- WebAudioAPI -->
<g id="node23" class="node">
<title>WebAudioAPI</title>
<path fill="white" stroke="black" d="M862.6,-69.9C862.6,-69.9 729.4,-69.9 729.4,-69.9 723.4,-69.9 717.4,-63.9 717.4,-57.9 717.4,-57.9 717.4,-36 717.4,-36 717.4,-30 723.4,-24 729.4,-24 729.4,-24 862.6,-24 862.6,-24 868.6,-24 874.6,-30 874.6,-36 874.6,-36 874.6,-57.9 874.6,-57.9 874.6,-63.9 868.6,-69.9 862.6,-69.9"/>
<text text-anchor="middle" x="796" y="-49.4" font-family="Arial" font-size="14.00">Web Audio API</text>
<text text-anchor="middle" x="796" y="-33.65" font-family="Arial" font-size="14.00">(Audio Processing)</text>
</g>
<!-- AudioManager&#45;&gt;WebAudioAPI -->
<g id="edge23" class="edge">
<title>AudioManager&#45;&gt;WebAudioAPI</title>
<path fill="none" stroke="black" d="M458.71,-308.45C458.71,-240.44 458.71,-47 458.71,-47 458.71,-47 705.41,-47 705.41,-47"/>
<polygon fill="black" stroke="black" points="705.41,-50.5 715.41,-47 705.41,-43.5 705.41,-50.5"/>
<text text-anchor="middle" x="1007.38" y="-186.05" font-family="Arial" font-size="9.00" fill="#4d4d4d">analyzes</text>
</g>
<!-- NoteMapping -->
<g id="node24" class="node">
<title>NoteMapping</title>
<path fill="white" stroke="black" d="M1223.97,-212.3C1223.97,-212.3 1096.03,-212.3 1096.03,-212.3 1090.03,-212.3 1084.03,-206.3 1084.03,-200.3 1084.03,-200.3 1084.03,-178.4 1084.03,-178.4 1084.03,-172.4 1090.03,-166.4 1096.03,-166.4 1096.03,-166.4 1223.97,-166.4 1223.97,-166.4 1229.97,-166.4 1235.97,-172.4 1235.97,-178.4 1235.97,-178.4 1235.97,-200.3 1235.97,-200.3 1235.97,-206.3 1229.97,-212.3 1223.97,-212.3"/>
<text text-anchor="middle" x="1160" y="-191.8" font-family="Arial" font-size="14.00">NoteMapping</text>
<text text-anchor="middle" x="1160" y="-176.05" font-family="Arial" font-size="14.00">(Note Generation)</text>
</g>
<!-- AudioManager&#45;&gt;NoteMapping -->
<g id="edge25" class="edge">
<title>AudioManager&#45;&gt;NoteMapping</title>
<path fill="none" stroke="black" d="M658.42,-339C816.59,-339 1088.81,-339 1088.81,-339 1088.81,-339 1088.81,-224.25 1088.81,-224.25"/>
<polygon fill="black" stroke="black" points="1092.31,-224.25 1088.81,-214.25 1085.31,-224.25 1092.31,-224.25"/>
<text text-anchor="middle" x="1044.75" y="-257.25" font-family="Arial" font-size="9.00" fill="#4d4d4d">uses</text>
</g>
<!-- ToneJS&#45;&gt;WebAudioAPI -->
<g id="edge22" class="edge">
<title>ToneJS&#45;&gt;WebAudioAPI</title>
<path fill="none" stroke="black" d="M795.31,-166.15C795.31,-166.15 795.31,-81.65 795.31,-81.65"/>
<polygon fill="black" stroke="black" points="798.81,-81.65 795.31,-71.65 791.81,-81.65 798.81,-81.65"/>
<text text-anchor="middle" x="816.62" y="-114.85" font-family="Arial" font-size="9.00" fill="#4d4d4d">generates</text>
</g>
</g>
</svg>
