<?xml version="1.0" encoding="UTF-8" standalone="no"?>
<!DOCTYPE svg PUBLIC "-//W3C//DTD SVG 1.1//EN"
 "http://www.w3.org/Graphics/SVG/1.1/DTD/svg11.dtd">
<!-- Generated by graphviz version 12.2.1 (20241206.2353)
 -->
<!-- Title: G Pages: 1 -->
<svg width="3476pt" height="1032pt"
 viewBox="0.00 0.00 3476.00 1032.30" xmlns="http://www.w3.org/2000/svg" xmlns:xlink="http://www.w3.org/1999/xlink">
<g id="graph0" class="graph" transform="scale(1 1) rotate(0) translate(4 1028.3)">
<title>G</title>
<polygon fill="white" stroke="none" points="-4,4 -4,-1028.3 3472,-1028.3 3472,4 -4,4"/>
<g id="clust1" class="cluster">
<title>cluster_core</title>
<polygon fill="#f2f2f2" stroke="#f2f2f2" points="82,-614.1 82,-842.15 497,-842.15 497,-614.1 82,-614.1"/>
<text text-anchor="middle" x="289.5" y="-824.85" font-family="Arial" font-size="14.00">Core Application</text>
</g>
<g id="clust3" class="cluster">
<title>cluster_ui</title>
<polygon fill="lightgrey" stroke="lightgrey" points="1500,-606.1 1500,-1016.3 3460,-1016.3 3460,-606.1 1500,-606.1"/>
<text text-anchor="middle" x="2480" y="-999" font-family="Arial" font-size="14.00">UI Components</text>
</g>
<g id="clust4" class="cluster">
<title>cluster_viz</title>
<polygon fill="white" stroke="white" points="2553,-614.1 2553,-842.15 2723,-842.15 2723,-614.1 2553,-614.1"/>
<text text-anchor="middle" x="2638" y="-824.85" font-family="Arial" font-size="14.00">Visualization</text>
</g>
<g id="clust5" class="cluster">
<title>cluster_panels</title>
<polygon fill="white" stroke="white" points="2160,-898.9 2160,-984.55 3452,-984.55 3452,-898.9 2160,-898.9"/>
<text text-anchor="middle" x="2806" y="-967.25" font-family="Arial" font-size="14.00">Control Panels</text>
</g>
<g id="clust6" class="cluster">
<title>cluster_controls</title>
<polygon fill="white" stroke="white" points="1508,-898.9 1508,-984.55 2119,-984.55 2119,-898.9 1508,-898.9"/>
<text text-anchor="middle" x="1813.5" y="-967.25" font-family="Arial" font-size="14.00">Controls</text>
</g>
<g id="clust7" class="cluster">
<title>cluster_shared</title>
<polygon fill="white" stroke="white" points="2781,-756.5 2781,-842.15 2955,-842.15 2955,-756.5 2781,-756.5"/>
<text text-anchor="middle" x="2868" y="-824.85" font-family="Arial" font-size="14.00">Shared Components</text>
</g>
<g id="clust8" class="cluster">
<title>cluster_stores</title>
<polygon fill="lightblue" stroke="lightblue" points="649,-614.1 649,-699.75 1492,-699.75 1492,-614.1 649,-614.1"/>
<text text-anchor="middle" x="1070.5" y="-682.45" font-family="Arial" font-size="14.00">State Management (Zustand)</text>
</g>
<g id="clust10" class="cluster">
<title>cluster_audio</title>
<polygon fill="lightgreen" stroke="lightgreen" points="692,-8 692,-560.6 1543,-560.6 1543,-8 692,-8"/>
<text text-anchor="middle" x="1117.5" y="-543.3" font-family="Arial" font-size="14.00">Audio System</text>
</g>
<g id="clust11" class="cluster">
<title>cluster_audio_core</title>
<polygon fill="white" stroke="white" points="700,-158.4 700,-528.85 1303,-528.85 1303,-158.4 700,-158.4"/>
<text text-anchor="middle" x="1001.5" y="-511.55" font-family="Arial" font-size="14.00">Core Audio</text>
</g>
<g id="clust12" class="cluster">
<title>cluster_audio_libs</title>
<polygon fill="white" stroke="white" points="1311,-16 1311,-244.05 1485,-244.05 1485,-16 1311,-16"/>
<text text-anchor="middle" x="1398" y="-226.75" font-family="Arial" font-size="14.00">Audio Libraries</text>
</g>
<g id="clust13" class="cluster">
<title>cluster_utils</title>
<polygon fill="lightyellow" stroke="lightyellow" points="1585,-158.4 1585,-244.05 2795,-244.05 2795,-158.4 1585,-158.4"/>
<text text-anchor="middle" x="2190" y="-226.75" font-family="Arial" font-size="14.00">Utilities &amp; Hooks</text>
</g>
<!-- App -->
<g id="node1" class="node">
<title>App</title>
<path fill="white" stroke="black" d="M222.22,-810.4C222.22,-810.4 101.78,-810.4 101.78,-810.4 95.78,-810.4 89.78,-804.4 89.78,-798.4 89.78,-798.4 89.78,-776.5 89.78,-776.5 89.78,-770.5 95.78,-764.5 101.78,-764.5 101.78,-764.5 222.22,-764.5 222.22,-764.5 228.22,-764.5 234.22,-770.5 234.22,-776.5 234.22,-776.5 234.22,-798.4 234.22,-798.4 234.22,-804.4 228.22,-810.4 222.22,-810.4"/>
<text text-anchor="middle" x="162" y="-789.9" font-family="Arial" font-size="14.00">App</text>
<text text-anchor="middle" x="162" y="-774.15" font-family="Arial" font-size="14.00">(Main Container)</text>
</g>
<!-- ErrorBoundary -->
<g id="node2" class="node">
<title>ErrorBoundary</title>
<path fill="white" stroke="black" d="M476.6,-810.4C476.6,-810.4 361.4,-810.4 361.4,-810.4 355.4,-810.4 349.4,-804.4 349.4,-798.4 349.4,-798.4 349.4,-776.5 349.4,-776.5 349.4,-770.5 355.4,-764.5 361.4,-764.5 361.4,-764.5 476.6,-764.5 476.6,-764.5 482.6,-764.5 488.6,-770.5 488.6,-776.5 488.6,-776.5 488.6,-798.4 488.6,-798.4 488.6,-804.4 482.6,-810.4 476.6,-810.4"/>
<text text-anchor="middle" x="419" y="-789.9" font-family="Arial" font-size="14.00">ErrorBoundary</text>
<text text-anchor="middle" x="419" y="-774.15" font-family="Arial" font-size="14.00">(Error Handling)</text>
</g>
<!-- App&#45;&gt;ErrorBoundary -->
<g id="edge1" class="edge">
<title>App&#45;&gt;ErrorBoundary</title>
<path fill="none" stroke="black" d="M234.62,-795C234.62,-795 337.71,-795 337.71,-795"/>
<polygon fill="black" stroke="black" points="337.71,-798.5 347.71,-795 337.71,-791.5 337.71,-798.5"/>
</g>
<!-- LoadingOverlay -->
<g id="node3" class="node">
<title>LoadingOverlay</title>
<path fill="white" stroke="black" d="M220.1,-668C220.1,-668 101.9,-668 101.9,-668 95.9,-668 89.9,-662 89.9,-656 89.9,-656 89.9,-634.1 89.9,-634.1 89.9,-628.1 95.9,-622.1 101.9,-622.1 101.9,-622.1 220.1,-622.1 220.1,-622.1 226.1,-622.1 232.1,-628.1 232.1,-634.1 232.1,-634.1 232.1,-656 232.1,-656 232.1,-662 226.1,-668 220.1,-668"/>
<text text-anchor="middle" x="161" y="-647.5" font-family="Arial" font-size="14.00">LoadingOverlay</text>
<text text-anchor="middle" x="161" y="-631.75" font-family="Arial" font-size="14.00">(Loading States)</text>
</g>
<!-- App&#45;&gt;LoadingOverlay -->
<g id="edge2" class="edge">
<title>App&#45;&gt;LoadingOverlay</title>
<path fill="none" stroke="black" d="M110.21,-764.25C110.21,-764.25 110.21,-679.75 110.21,-679.75"/>
<polygon fill="black" stroke="black" points="113.71,-679.75 110.21,-669.75 106.71,-679.75 113.71,-679.75"/>
<text text-anchor="middle" x="181.12" y="-712.95" font-family="Arial" font-size="9.00" fill="#4d4d4d">manages</text>
</g>
<!-- AudioContextProvider -->
<g id="node4" class="node">
<title>AudioContextProvider</title>
<path fill="white" stroke="black" d="M469.48,-668C469.48,-668 302.52,-668 302.52,-668 296.52,-668 290.52,-662 290.52,-656 290.52,-656 290.52,-634.1 290.52,-634.1 290.52,-628.1 296.52,-622.1 302.52,-622.1 302.52,-622.1 469.48,-622.1 469.48,-622.1 475.48,-622.1 481.48,-628.1 481.48,-634.1 481.48,-634.1 481.48,-656 481.48,-656 481.48,-662 475.48,-668 469.48,-668"/>
<text text-anchor="middle" x="386" y="-647.5" font-family="Arial" font-size="14.00">AudioContext</text>
<text text-anchor="middle" x="386" y="-631.75" font-family="Arial" font-size="14.00">(Audio Context Provider)</text>
</g>
<!-- App&#45;&gt;AudioContextProvider -->
<g id="edge3" class="edge">
<title>App&#45;&gt;AudioContextProvider</title>
<path fill="none" stroke="black" d="M234.51,-780C276.03,-780 319.96,-780 319.96,-780 319.96,-780 319.96,-679.76 319.96,-679.76"/>
<polygon fill="black" stroke="black" points="323.46,-679.76 319.96,-669.76 316.46,-679.76 323.46,-679.76"/>
<text text-anchor="middle" x="342.62" y="-712.95" font-family="Arial" font-size="9.00" fill="#4d4d4d">provides</text>
</g>
<!-- AudioStore -->
<g id="node17" class="node">
<title>AudioStore</title>
<path fill="white" stroke="black" d="M1204.97,-668C1204.97,-668 1107.03,-668 1107.03,-668 1101.03,-668 1095.03,-662 1095.03,-656 1095.03,-656 1095.03,-634.1 1095.03,-634.1 1095.03,-628.1 1101.03,-622.1 1107.03,-622.1 1107.03,-622.1 1204.97,-622.1 1204.97,-622.1 1210.97,-622.1 1216.97,-628.1 1216.97,-634.1 1216.97,-634.1 1216.97,-656 1216.97,-656 1216.97,-662 1210.97,-668 1204.97,-668"/>
<text text-anchor="middle" x="1156" y="-647.5" font-family="Arial" font-size="14.00">AudioStore</text>
<text text-anchor="middle" x="1156" y="-631.75" font-family="Arial" font-size="14.00">(Audio State)</text>
</g>
<!-- App&#45;&gt;AudioStore -->
<g id="edge4" class="edge">
<title>App&#45;&gt;AudioStore</title>
<path fill="none" stroke="black" d="M171.16,-764.05C171.16,-743.22 171.16,-716 171.16,-716 171.16,-716 1125.51,-716 1125.51,-716 1125.51,-716 1125.51,-679.8 1125.51,-679.8"/>
<polygon fill="black" stroke="black" points="1129.01,-679.8 1125.51,-669.8 1122.01,-679.8 1129.01,-679.8"/>
<text text-anchor="middle" x="1093.75" y="-712.95" font-family="Arial" font-size="9.00" fill="#4d4d4d">uses</text>
</g>
<!-- AudioParametersStore -->
<g id="node18" class="node">
<title>AudioParametersStore</title>
<path fill="white" stroke="black" d="M1025.22,-668C1025.22,-668 868.77,-668 868.77,-668 862.77,-668 856.77,-662 856.77,-656 856.77,-656 856.77,-634.1 856.77,-634.1 856.77,-628.1 862.77,-622.1 868.77,-622.1 868.77,-622.1 1025.22,-622.1 1025.22,-622.1 1031.22,-622.1 1037.22,-628.1 1037.22,-634.1 1037.22,-634.1 1037.22,-656 1037.22,-656 1037.22,-662 1031.22,-668 1025.22,-668"/>
<text text-anchor="middle" x="947" y="-647.5" font-family="Arial" font-size="14.00">AudioParametersStore</text>
<text text-anchor="middle" x="947" y="-631.75" font-family="Arial" font-size="14.00">(Synth Parameters)</text>
</g>
<!-- App&#45;&gt;AudioParametersStore -->
<g id="edge5" class="edge">
<title>App&#45;&gt;AudioParametersStore</title>
<path fill="none" stroke="black" d="M150.84,-764.02C150.84,-738.11 150.84,-700 150.84,-700 150.84,-700 901.89,-700 901.89,-700 901.89,-700 901.89,-679.87 901.89,-679.87"/>
<polygon fill="black" stroke="black" points="905.39,-679.87 901.89,-669.87 898.39,-679.87 905.39,-679.87"/>
<text text-anchor="middle" x="718.75" y="-712.95" font-family="Arial" font-size="9.00" fill="#4d4d4d">uses</text>
</g>
<!-- TransportStore -->
<g id="node19" class="node">
<title>TransportStore</title>
<path fill="white" stroke="black" d="M787.1,-668C787.1,-668 668.9,-668 668.9,-668 662.9,-668 656.9,-662 656.9,-656 656.9,-656 656.9,-634.1 656.9,-634.1 656.9,-628.1 662.9,-622.1 668.9,-622.1 668.9,-622.1 787.1,-622.1 787.1,-622.1 793.1,-622.1 799.1,-628.1 799.1,-634.1 799.1,-634.1 799.1,-656 799.1,-656 799.1,-662 793.1,-668 787.1,-668"/>
<text text-anchor="middle" x="728" y="-647.5" font-family="Arial" font-size="14.00">TransportStore</text>
<text text-anchor="middle" x="728" y="-631.75" font-family="Arial" font-size="14.00">(Playback State)</text>
</g>
<!-- App&#45;&gt;TransportStore -->
<g id="edge6" class="edge">
<title>App&#45;&gt;TransportStore</title>
<path fill="none" stroke="black" d="M130.53,-764.23C130.53,-733.73 130.53,-684 130.53,-684 130.53,-684 704.3,-684 704.3,-684 704.3,-684 704.3,-679.67 704.3,-679.67"/>
<polygon fill="black" stroke="black" points="707.8,-679.67 704.3,-669.67 700.8,-679.67 707.8,-679.67"/>
<text text-anchor="middle" x="635.75" y="-712.95" font-family="Arial" font-size="9.00" fill="#4d4d4d">uses</text>
</g>
<!-- VisualizationStore -->
<g id="node20" class="node">
<title>VisualizationStore</title>
<path fill="white" stroke="black" d="M1471.6,-668C1471.6,-668 1344.4,-668 1344.4,-668 1338.4,-668 1332.4,-662 1332.4,-656 1332.4,-656 1332.4,-634.1 1332.4,-634.1 1332.4,-628.1 1338.4,-622.1 1344.4,-622.1 1344.4,-622.1 1471.6,-622.1 1471.6,-622.1 1477.6,-622.1 1483.6,-628.1 1483.6,-634.1 1483.6,-634.1 1483.6,-656 1483.6,-656 1483.6,-662 1477.6,-668 1471.6,-668"/>
<text text-anchor="middle" x="1408" y="-647.5" font-family="Arial" font-size="14.00">VisualizationStore</text>
<text text-anchor="middle" x="1408" y="-631.75" font-family="Arial" font-size="14.00">(Visual State)</text>
</g>
<!-- App&#45;&gt;VisualizationStore -->
<g id="edge7" class="edge">
<title>App&#45;&gt;VisualizationStore</title>
<path fill="none" stroke="black" d="M191.47,-764.26C191.47,-749.06 191.47,-732 191.47,-732 191.47,-732 1408,-732 1408,-732 1408,-732 1408,-679.86 1408,-679.86"/>
<polygon fill="black" stroke="black" points="1411.5,-679.86 1408,-669.86 1404.5,-679.86 1411.5,-679.86"/>
<text text-anchor="middle" x="1414.75" y="-712.95" font-family="Arial" font-size="9.00" fill="#4d4d4d">uses</text>
</g>
<!-- UseKeyboardShortcuts -->
<g id="node34" class="node">
<title>UseKeyboardShortcuts</title>
<path fill="white" stroke="black" d="M1760.85,-212.3C1760.85,-212.3 1605.15,-212.3 1605.15,-212.3 1599.15,-212.3 1593.15,-206.3 1593.15,-200.3 1593.15,-200.3 1593.15,-178.4 1593.15,-178.4 1593.15,-172.4 1599.15,-166.4 1605.15,-166.4 1605.15,-166.4 1760.85,-166.4 1760.85,-166.4 1766.85,-166.4 1772.85,-172.4 1772.85,-178.4 1772.85,-178.4 1772.85,-200.3 1772.85,-200.3 1772.85,-206.3 1766.85,-212.3 1760.85,-212.3"/>
<text text-anchor="middle" x="1683" y="-191.8" font-family="Arial" font-size="14.00">useKeyboardShortcuts</text>
<text text-anchor="middle" x="1683" y="-176.05" font-family="Arial" font-size="14.00">(Controls Hook)</text>
</g>
<!-- App&#45;&gt;UseKeyboardShortcuts -->
<g id="edge40" class="edge">
<title>App&#45;&gt;UseKeyboardShortcuts</title>
<path fill="none" stroke="black" d="M211.79,-764.05C211.79,-755.55 211.79,-748 211.79,-748 211.79,-748 1631.62,-748 1631.62,-748 1631.62,-748 1631.62,-224.16 1631.62,-224.16"/>
<polygon fill="black" stroke="black" points="1635.13,-224.16 1631.63,-214.16 1628.13,-224.16 1635.13,-224.16"/>
<text text-anchor="middle" x="511.75" y="-470.85" font-family="Arial" font-size="9.00" fill="#4d4d4d">uses</text>
</g>
<!-- FractalComponent -->
<g id="node5" class="node">
<title>FractalComponent</title>
<path fill="white" stroke="black" d="M2703.47,-810.4C2703.47,-810.4 2572.53,-810.4 2572.53,-810.4 2566.53,-810.4 2560.53,-804.4 2560.53,-798.4 2560.53,-798.4 2560.53,-776.5 2560.53,-776.5 2560.53,-770.5 2566.53,-764.5 2572.53,-764.5 2572.53,-764.5 2703.47,-764.5 2703.47,-764.5 2709.47,-764.5 2715.47,-770.5 2715.47,-776.5 2715.47,-776.5 2715.47,-798.4 2715.47,-798.4 2715.47,-804.4 2709.47,-810.4 2703.47,-810.4"/>
<text text-anchor="middle" x="2638" y="-789.9" font-family="Arial" font-size="14.00">FractalComponent</text>
<text text-anchor="middle" x="2638" y="-774.15" font-family="Arial" font-size="14.00">(3D Visualization)</text>
</g>
<!-- SphereActivation -->
<g id="node6" class="node">
<title>SphereActivation</title>
<path fill="white" stroke="black" d="M2702.6,-668C2702.6,-668 2581.4,-668 2581.4,-668 2575.4,-668 2569.4,-662 2569.4,-656 2569.4,-656 2569.4,-634.1 2569.4,-634.1 2569.4,-628.1 2575.4,-622.1 2581.4,-622.1 2581.4,-622.1 2702.6,-622.1 2702.6,-622.1 2708.6,-622.1 2714.6,-628.1 2714.6,-634.1 2714.6,-634.1 2714.6,-656 2714.6,-656 2714.6,-662 2708.6,-668 2702.6,-668"/>
<text text-anchor="middle" x="2642" y="-647.5" font-family="Arial" font-size="14.00">SphereActivation</text>
<text text-anchor="middle" x="2642" y="-631.75" font-family="Arial" font-size="14.00">(Note Triggers)</text>
</g>
<!-- FractalComponent&#45;&gt;SphereActivation -->
<g id="edge10" class="edge">
<title>FractalComponent&#45;&gt;SphereActivation</title>
<path fill="none" stroke="black" d="M2642,-764.25C2642,-764.25 2642,-679.75 2642,-679.75"/>
<polygon fill="black" stroke="black" points="2645.5,-679.75 2642,-669.75 2638.5,-679.75 2645.5,-679.75"/>
<text text-anchor="middle" x="2655.38" y="-712.95" font-family="Arial" font-size="9.00" fill="#4d4d4d">triggers</text>
</g>
<!-- FractalComponent&#45;&gt;VisualizationStore -->
<g id="edge9" class="edge">
<title>FractalComponent&#45;&gt;VisualizationStore</title>
<path fill="none" stroke="black" d="M2563.48,-764.25C2563.48,-723.88 2563.48,-645 2563.48,-645 2563.48,-645 1495.33,-645 1495.33,-645"/>
<polygon fill="black" stroke="black" points="1495.33,-641.5 1485.33,-645 1495.33,-648.5 1495.33,-641.5"/>
<text text-anchor="middle" x="2100.25" y="-712.95" font-family="Arial" font-size="9.00" fill="#4d4d4d">updates/reads</text>
</g>
<!-- Geometry -->
<g id="node31" class="node">
<title>Geometry</title>
<path fill="white" stroke="black" d="M2376.35,-212.3C2376.35,-212.3 2253.65,-212.3 2253.65,-212.3 2247.65,-212.3 2241.65,-206.3 2241.65,-200.3 2241.65,-200.3 2241.65,-178.4 2241.65,-178.4 2241.65,-172.4 2247.65,-166.4 2253.65,-166.4 2253.65,-166.4 2376.35,-166.4 2376.35,-166.4 2382.35,-166.4 2388.35,-172.4 2388.35,-178.4 2388.35,-178.4 2388.35,-200.3 2388.35,-200.3 2388.35,-206.3 2382.35,-212.3 2376.35,-212.3"/>
<text text-anchor="middle" x="2315" y="-191.8" font-family="Arial" font-size="14.00">Geometry</text>
<text text-anchor="middle" x="2315" y="-176.05" font-family="Arial" font-size="14.00">(3D Calculations)</text>
</g>
<!-- FractalComponent&#45;&gt;Geometry -->
<g id="edge30" class="edge">
<title>FractalComponent&#45;&gt;Geometry</title>
<path fill="none" stroke="black" d="M2560.23,-787C2479.23,-787 2364.04,-787 2364.04,-787 2364.04,-787 2364.04,-224.29 2364.04,-224.29"/>
<polygon fill="black" stroke="black" points="2367.54,-224.29 2364.04,-214.29 2360.54,-224.29 2367.54,-224.29"/>
<text text-anchor="middle" x="2339.75" y="-470.85" font-family="Arial" font-size="9.00" fill="#4d4d4d">uses</text>
</g>
<!-- UseClockSync -->
<g id="node33" class="node">
<title>UseClockSync</title>
<path fill="white" stroke="black" d="M2563.35,-212.3C2563.35,-212.3 2458.65,-212.3 2458.65,-212.3 2452.65,-212.3 2446.65,-206.3 2446.65,-200.3 2446.65,-200.3 2446.65,-178.4 2446.65,-178.4 2446.65,-172.4 2452.65,-166.4 2458.65,-166.4 2458.65,-166.4 2563.35,-166.4 2563.35,-166.4 2569.35,-166.4 2575.35,-172.4 2575.35,-178.4 2575.35,-178.4 2575.35,-200.3 2575.35,-200.3 2575.35,-206.3 2569.35,-212.3 2563.35,-212.3"/>
<text text-anchor="middle" x="2511" y="-191.8" font-family="Arial" font-size="14.00">useClockSync</text>
<text text-anchor="middle" x="2511" y="-176.05" font-family="Arial" font-size="14.00">(Timing Hook)</text>
</g>
<!-- FractalComponent&#45;&gt;UseClockSync -->
<g id="edge41" class="edge">
<title>FractalComponent&#45;&gt;UseClockSync</title>
<path fill="none" stroke="black" d="M2566.44,-764C2566.44,-764 2566.44,-224.15 2566.44,-224.15"/>
<polygon fill="black" stroke="black" points="2569.94,-224.15 2566.44,-214.15 2562.94,-224.15 2569.94,-224.15"/>
<text text-anchor="middle" x="2490.75" y="-470.85" font-family="Arial" font-size="9.00" fill="#4d4d4d">uses</text>
</g>
<!-- FractalPanel -->
<g id="node7" class="node">
<title>FractalPanel</title>
<path fill="white" stroke="black" d="M2993.85,-952.8C2993.85,-952.8 2856.15,-952.8 2856.15,-952.8 2850.15,-952.8 2844.15,-946.8 2844.15,-940.8 2844.15,-940.8 2844.15,-918.9 2844.15,-918.9 2844.15,-912.9 2850.15,-906.9 2856.15,-906.9 2856.15,-906.9 2993.85,-906.9 2993.85,-906.9 2999.85,-906.9 3005.85,-912.9 3005.85,-918.9 3005.85,-918.9 3005.85,-940.8 3005.85,-940.8 3005.85,-946.8 2999.85,-952.8 2993.85,-952.8"/>
<text text-anchor="middle" x="2925" y="-932.3" font-family="Arial" font-size="14.00">FractalPanel</text>
<text text-anchor="middle" x="2925" y="-916.55" font-family="Arial" font-size="14.00">(Main Visualization)</text>
</g>
<!-- FractalPanel&#45;&gt;FractalComponent -->
<g id="edge8" class="edge">
<title>FractalPanel&#45;&gt;FractalComponent</title>
<path fill="none" stroke="black" d="M2878.43,-906.45C2878.43,-874.73 2878.43,-822 2878.43,-822 2878.43,-822 2684.91,-822 2684.91,-822 2684.91,-822 2684.91,-820.87 2684.91,-820.87"/>
<polygon fill="black" stroke="black" points="2688.41,-822.2 2684.91,-812.2 2681.41,-822.2 2688.41,-822.2"/>
<text text-anchor="middle" x="2829.25" y="-855.35" font-family="Arial" font-size="9.00" fill="#4d4d4d">contains</text>
</g>
<!-- StyledComponents -->
<g id="node16" class="node">
<title>StyledComponents</title>
<path fill="white" stroke="black" d="M2934.97,-810.4C2934.97,-810.4 2801.03,-810.4 2801.03,-810.4 2795.03,-810.4 2789.03,-804.4 2789.03,-798.4 2789.03,-798.4 2789.03,-776.5 2789.03,-776.5 2789.03,-770.5 2795.03,-764.5 2801.03,-764.5 2801.03,-764.5 2934.97,-764.5 2934.97,-764.5 2940.97,-764.5 2946.97,-770.5 2946.97,-776.5 2946.97,-776.5 2946.97,-798.4 2946.97,-798.4 2946.97,-804.4 2940.97,-810.4 2934.97,-810.4"/>
<text text-anchor="middle" x="2868" y="-789.9" font-family="Arial" font-size="14.00">StyledComponents</text>
<text text-anchor="middle" x="2868" y="-774.15" font-family="Arial" font-size="14.00">(Shared Styles)</text>
</g>
<!-- FractalPanel&#45;&gt;StyledComponents -->
<g id="edge34" class="edge">
<title>FractalPanel&#45;&gt;StyledComponents</title>
<path fill="none" stroke="black" d="M2912.7,-906.65C2912.7,-906.65 2912.7,-822.15 2912.7,-822.15"/>
<polygon fill="black" stroke="black" points="2916.2,-822.15 2912.7,-812.15 2909.2,-822.15 2916.2,-822.15"/>
<text text-anchor="middle" x="2929.75" y="-855.35" font-family="Arial" font-size="9.00" fill="#4d4d4d">uses</text>
</g>
<!-- AudioVizPanel -->
<g id="node8" class="node">
<title>AudioVizPanel</title>
<path fill="white" stroke="black" d="M3432.1,-952.8C3432.1,-952.8 3289.9,-952.8 3289.9,-952.8 3283.9,-952.8 3277.9,-946.8 3277.9,-940.8 3277.9,-940.8 3277.9,-918.9 3277.9,-918.9 3277.9,-912.9 3283.9,-906.9 3289.9,-906.9 3289.9,-906.9 3432.1,-906.9 3432.1,-906.9 3438.1,-906.9 3444.1,-912.9 3444.1,-918.9 3444.1,-918.9 3444.1,-940.8 3444.1,-940.8 3444.1,-946.8 3438.1,-952.8 3432.1,-952.8"/>
<text text-anchor="middle" x="3361" y="-932.3" font-family="Arial" font-size="14.00">AudioVizPanel</text>
<text text-anchor="middle" x="3361" y="-916.55" font-family="Arial" font-size="14.00">(Audio Visualization)</text>
</g>
<!-- AudioVizPanel&#45;&gt;StyledComponents -->
<g id="edge35" class="edge">
<title>AudioVizPanel&#45;&gt;StyledComponents</title>
<path fill="none" stroke="black" d="M3361,-906.44C3361,-864.29 3361,-780 3361,-780 3361,-780 2958.72,-780 2958.72,-780"/>
<polygon fill="black" stroke="black" points="2958.72,-776.5 2948.72,-780 2958.72,-783.5 2958.72,-776.5"/>
<text text-anchor="middle" x="3243.75" y="-855.35" font-family="Arial" font-size="9.00" fill="#4d4d4d">uses</text>
</g>
<!-- AudioVizPanel&#45;&gt;AudioStore -->
<g id="edge16" class="edge">
<title>AudioVizPanel&#45;&gt;AudioStore</title>
<path fill="none" stroke="black" d="M3319.45,-906.65C3319.45,-885.99 3319.45,-859 3319.45,-859 3319.45,-859 1186.49,-859 1186.49,-859 1186.49,-859 1186.49,-679.87 1186.49,-679.87"/>
<polygon fill="black" stroke="black" points="1189.99,-679.87 1186.49,-669.87 1182.99,-679.87 1189.99,-679.87"/>
<text text-anchor="middle" x="1806.62" y="-784.15" font-family="Arial" font-size="9.00" fill="#4d4d4d">reads</text>
</g>
<!-- UseAudioManager -->
<g id="node32" class="node">
<title>UseAudioManager</title>
<path fill="white" stroke="black" d="M2774.72,-212.3C2774.72,-212.3 2645.28,-212.3 2645.28,-212.3 2639.28,-212.3 2633.28,-206.3 2633.28,-200.3 2633.28,-200.3 2633.28,-178.4 2633.28,-178.4 2633.28,-172.4 2639.28,-166.4 2645.28,-166.4 2645.28,-166.4 2774.72,-166.4 2774.72,-166.4 2780.72,-166.4 2786.72,-172.4 2786.72,-178.4 2786.72,-178.4 2786.72,-200.3 2786.72,-200.3 2786.72,-206.3 2780.72,-212.3 2774.72,-212.3"/>
<text text-anchor="middle" x="2710" y="-191.8" font-family="Arial" font-size="14.00">useAudioManager</text>
<text text-anchor="middle" x="2710" y="-176.05" font-family="Arial" font-size="14.00">(Audio Hook)</text>
</g>
<!-- AudioVizPanel&#45;&gt;UseAudioManager -->
<g id="edge42" class="edge">
<title>AudioVizPanel&#45;&gt;UseAudioManager</title>
<path fill="none" stroke="black" d="M3402.55,-906.45C3402.55,-780.52 3402.55,-189 3402.55,-189 3402.55,-189 2798.61,-189 2798.61,-189"/>
<polygon fill="black" stroke="black" points="2798.61,-185.5 2788.61,-189 2798.61,-192.5 2798.61,-185.5"/>
<text text-anchor="middle" x="3336.75" y="-570.55" font-family="Arial" font-size="9.00" fill="#4d4d4d">uses</text>
</g>
<!-- GlobalControlsPanel -->
<g id="node9" class="node">
<title>GlobalControlsPanel</title>
<path fill="white" stroke="black" d="M2553.85,-952.8C2553.85,-952.8 2410.15,-952.8 2410.15,-952.8 2404.15,-952.8 2398.15,-946.8 2398.15,-940.8 2398.15,-940.8 2398.15,-918.9 2398.15,-918.9 2398.15,-912.9 2404.15,-906.9 2410.15,-906.9 2410.15,-906.9 2553.85,-906.9 2553.85,-906.9 2559.85,-906.9 2565.85,-912.9 2565.85,-918.9 2565.85,-918.9 2565.85,-940.8 2565.85,-940.8 2565.85,-946.8 2559.85,-952.8 2553.85,-952.8"/>
<text text-anchor="middle" x="2482" y="-932.3" font-family="Arial" font-size="14.00">GlobalControlsPanel</text>
<text text-anchor="middle" x="2482" y="-916.55" font-family="Arial" font-size="14.00">(Global Settings)</text>
</g>
<!-- GlobalControlsPanel&#45;&gt;StyledComponents -->
<g id="edge36" class="edge">
<title>GlobalControlsPanel&#45;&gt;StyledComponents</title>
<path fill="none" stroke="black" d="M2503.59,-906.77C2503.59,-882.26 2503.59,-847 2503.59,-847 2503.59,-847 2816.59,-847 2816.59,-847 2816.59,-847 2816.59,-822.16 2816.59,-822.16"/>
<polygon fill="black" stroke="black" points="2820.09,-822.16 2816.59,-812.16 2813.09,-822.16 2820.09,-822.16"/>
<text text-anchor="middle" x="2566.75" y="-855.35" font-family="Arial" font-size="9.00" fill="#4d4d4d">uses</text>
</g>
<!-- GlobalControlsPanel&#45;&gt;AudioParametersStore -->
<g id="edge15" class="edge">
<title>GlobalControlsPanel&#45;&gt;AudioParametersStore</title>
<path fill="none" stroke="black" d="M2422.4,-906.41C2422.4,-900.11 2422.4,-895 2422.4,-895 2422.4,-895 947,-895 947,-895 947,-895 947,-679.63 947,-679.63"/>
<polygon fill="black" stroke="black" points="950.5,-679.63 947,-669.63 943.5,-679.63 950.5,-679.63"/>
<text text-anchor="middle" x="994.38" y="-784.15" font-family="Arial" font-size="9.00" fill="#4d4d4d">configures</text>
</g>
<!-- StepSequencerPanel -->
<g id="node10" class="node">
<title>StepSequencerPanel</title>
<path fill="white" stroke="black" d="M2327.72,-952.8C2327.72,-952.8 2180.28,-952.8 2180.28,-952.8 2174.28,-952.8 2168.28,-946.8 2168.28,-940.8 2168.28,-940.8 2168.28,-918.9 2168.28,-918.9 2168.28,-912.9 2174.28,-906.9 2180.28,-906.9 2180.28,-906.9 2327.72,-906.9 2327.72,-906.9 2333.72,-906.9 2339.72,-912.9 2339.72,-918.9 2339.72,-918.9 2339.72,-940.8 2339.72,-940.8 2339.72,-946.8 2333.72,-952.8 2327.72,-952.8"/>
<text text-anchor="middle" x="2254" y="-932.3" font-family="Arial" font-size="14.00">StepSequencerPanel</text>
<text text-anchor="middle" x="2254" y="-916.55" font-family="Arial" font-size="14.00">(Sequencer Controls)</text>
</g>
<!-- StepSequencerPanel&#45;&gt;StyledComponents -->
<g id="edge37" class="edge">
<title>StepSequencerPanel&#45;&gt;StyledComponents</title>
<path fill="none" stroke="black" d="M2290.69,-906.4C2290.69,-878.32 2290.69,-835 2290.69,-835 2290.69,-835 2802.81,-835 2802.81,-835 2802.81,-835 2802.81,-822.18 2802.81,-822.18"/>
<polygon fill="black" stroke="black" points="2806.31,-822.18 2802.81,-812.18 2799.31,-822.18 2806.31,-822.18"/>
<text text-anchor="middle" x="2341.75" y="-855.35" font-family="Arial" font-size="9.00" fill="#4d4d4d">uses</text>
</g>
<!-- StepSequencerPanel&#45;&gt;AudioStore -->
<g id="edge11" class="edge">
<title>StepSequencerPanel&#45;&gt;AudioStore</title>
<path fill="none" stroke="black" d="M2173.34,-906.59C2173.34,-890.14 2173.34,-871 2173.34,-871 2173.34,-871 1156,-871 1156,-871 1156,-871 1156,-679.89 1156,-679.89"/>
<polygon fill="black" stroke="black" points="1159.5,-679.89 1156,-669.89 1152.5,-679.89 1159.5,-679.89"/>
<text text-anchor="middle" x="1173.12" y="-784.15" font-family="Arial" font-size="9.00" fill="#4d4d4d">controls</text>
</g>
<!-- Sequencer -->
<g id="node24" class="node">
<title>Sequencer</title>
<path fill="white" stroke="black" d="M866.35,-354.7C866.35,-354.7 719.65,-354.7 719.65,-354.7 713.65,-354.7 707.65,-348.7 707.65,-342.7 707.65,-342.7 707.65,-320.8 707.65,-320.8 707.65,-314.8 713.65,-308.8 719.65,-308.8 719.65,-308.8 866.35,-308.8 866.35,-308.8 872.35,-308.8 878.35,-314.8 878.35,-320.8 878.35,-320.8 878.35,-342.7 878.35,-342.7 878.35,-348.7 872.35,-354.7 866.35,-354.7"/>
<text text-anchor="middle" x="793" y="-334.2" font-family="Arial" font-size="14.00">Sequencer</text>
<text text-anchor="middle" x="793" y="-318.45" font-family="Arial" font-size="14.00">(Pattern Sequencing)</text>
</g>
<!-- StepSequencerPanel&#45;&gt;Sequencer -->
<g id="edge12" class="edge">
<title>StepSequencerPanel&#45;&gt;Sequencer</title>
<path fill="none" stroke="black" d="M2178.41,-906.62C2178.41,-828.49 2178.41,-580 2178.41,-580 2178.41,-580 863.97,-580 863.97,-580 863.97,-580 863.97,-366.62 863.97,-366.62"/>
<polygon fill="black" stroke="black" points="867.47,-366.62 863.97,-356.62 860.47,-366.62 867.47,-366.62"/>
<text text-anchor="middle" x="16.12" y="-641.75" font-family="Arial" font-size="9.00" fill="#4d4d4d">controls</text>
</g>
<!-- SynthControlsPanel -->
<g id="node11" class="node">
<title>SynthControlsPanel</title>
<path fill="white" stroke="black" d="M2774.22,-952.8C2774.22,-952.8 2635.78,-952.8 2635.78,-952.8 2629.78,-952.8 2623.78,-946.8 2623.78,-940.8 2623.78,-940.8 2623.78,-918.9 2623.78,-918.9 2623.78,-912.9 2629.78,-906.9 2635.78,-906.9 2635.78,-906.9 2774.22,-906.9 2774.22,-906.9 2780.22,-906.9 2786.22,-912.9 2786.22,-918.9 2786.22,-918.9 2786.22,-940.8 2786.22,-940.8 2786.22,-946.8 2780.22,-952.8 2774.22,-952.8"/>
<text text-anchor="middle" x="2705" y="-932.3" font-family="Arial" font-size="14.00">SynthControlsPanel</text>
<text text-anchor="middle" x="2705" y="-916.55" font-family="Arial" font-size="14.00">(Synth Parameters)</text>
</g>
<!-- SynthControlsPanel&#45;&gt;StyledComponents -->
<g id="edge38" class="edge">
<title>SynthControlsPanel&#45;&gt;StyledComponents</title>
<path fill="none" stroke="black" d="M2786.52,-930C2810.47,-930 2830.37,-930 2830.37,-930 2830.37,-930 2830.37,-822.18 2830.37,-822.18"/>
<polygon fill="black" stroke="black" points="2833.87,-822.18 2830.37,-812.18 2826.87,-822.18 2833.87,-822.18"/>
<text text-anchor="middle" x="2719.75" y="-855.35" font-family="Arial" font-size="9.00" fill="#4d4d4d">uses</text>
</g>
<!-- SynthControlsPanel&#45;&gt;AudioParametersStore -->
<g id="edge13" class="edge">
<title>SynthControlsPanel&#45;&gt;AudioParametersStore</title>
<path fill="none" stroke="black" d="M2654.34,-906.43C2654.34,-894.71 2654.34,-883 2654.34,-883 2654.34,-883 992.11,-883 992.11,-883 992.11,-883 992.11,-679.81 992.11,-679.81"/>
<polygon fill="black" stroke="black" points="995.61,-679.81 992.11,-669.81 988.61,-679.81 995.61,-679.81"/>
<text text-anchor="middle" x="1328.38" y="-784.15" font-family="Arial" font-size="9.00" fill="#4d4d4d">configures</text>
</g>
<!-- StepControlsPanel -->
<g id="node12" class="node">
<title>StepControlsPanel</title>
<path fill="white" stroke="black" d="M3207.85,-952.8C3207.85,-952.8 3076.15,-952.8 3076.15,-952.8 3070.15,-952.8 3064.15,-946.8 3064.15,-940.8 3064.15,-940.8 3064.15,-918.9 3064.15,-918.9 3064.15,-912.9 3070.15,-906.9 3076.15,-906.9 3076.15,-906.9 3207.85,-906.9 3207.85,-906.9 3213.85,-906.9 3219.85,-912.9 3219.85,-918.9 3219.85,-918.9 3219.85,-940.8 3219.85,-940.8 3219.85,-946.8 3213.85,-952.8 3207.85,-952.8"/>
<text text-anchor="middle" x="3142" y="-932.3" font-family="Arial" font-size="14.00">StepControlsPanel</text>
<text text-anchor="middle" x="3142" y="-916.55" font-family="Arial" font-size="14.00">(Step Settings)</text>
</g>
<!-- StepControlsPanel&#45;&gt;StyledComponents -->
<g id="edge39" class="edge">
<title>StepControlsPanel&#45;&gt;StyledComponents</title>
<path fill="none" stroke="black" d="M3142,-906.67C3142,-868.11 3142,-795 3142,-795 3142,-795 2958.77,-795 2958.77,-795"/>
<polygon fill="black" stroke="black" points="2958.77,-791.5 2948.77,-795 2958.77,-798.5 2958.77,-791.5"/>
<text text-anchor="middle" x="3084.75" y="-855.35" font-family="Arial" font-size="9.00" fill="#4d4d4d">uses</text>
</g>
<!-- TransportControls -->
<g id="node13" class="node">
<title>TransportControls</title>
<path fill="white" stroke="black" d="M1658.1,-952.8C1658.1,-952.8 1527.9,-952.8 1527.9,-952.8 1521.9,-952.8 1515.9,-946.8 1515.9,-940.8 1515.9,-940.8 1515.9,-918.9 1515.9,-918.9 1515.9,-912.9 1521.9,-906.9 1527.9,-906.9 1527.9,-906.9 1658.1,-906.9 1658.1,-906.9 1664.1,-906.9 1670.1,-912.9 1670.1,-918.9 1670.1,-918.9 1670.1,-940.8 1670.1,-940.8 1670.1,-946.8 1664.1,-952.8 1658.1,-952.8"/>
<text text-anchor="middle" x="1593" y="-932.3" font-family="Arial" font-size="14.00">TransportControls</text>
<text text-anchor="middle" x="1593" y="-916.55" font-family="Arial" font-size="14.00">(Playback Control)</text>
</g>
<!-- TransportControls&#45;&gt;TransportStore -->
<g id="edge14" class="edge">
<title>TransportControls&#45;&gt;TransportStore</title>
<path fill="none" stroke="black" d="M1515.74,-930C1307.76,-930 751.7,-930 751.7,-930 751.7,-930 751.7,-679.88 751.7,-679.88"/>
<polygon fill="black" stroke="black" points="755.2,-679.88 751.7,-669.88 748.2,-679.88 755.2,-679.88"/>
<text text-anchor="middle" x="780.12" y="-784.15" font-family="Arial" font-size="9.00" fill="#4d4d4d">controls</text>
</g>
<!-- SelectControl -->
<g id="node14" class="node">
<title>SelectControl</title>
<path fill="white" stroke="black" d="M1877.47,-952.8C1877.47,-952.8 1740.53,-952.8 1740.53,-952.8 1734.53,-952.8 1728.53,-946.8 1728.53,-940.8 1728.53,-940.8 1728.53,-918.9 1728.53,-918.9 1728.53,-912.9 1734.53,-906.9 1740.53,-906.9 1740.53,-906.9 1877.47,-906.9 1877.47,-906.9 1883.47,-906.9 1889.47,-912.9 1889.47,-918.9 1889.47,-918.9 1889.47,-940.8 1889.47,-940.8 1889.47,-946.8 1883.47,-952.8 1877.47,-952.8"/>
<text text-anchor="middle" x="1809" y="-932.3" font-family="Arial" font-size="14.00">SelectControl</text>
<text text-anchor="middle" x="1809" y="-916.55" font-family="Arial" font-size="14.00">(Dropdown Control)</text>
</g>
<!-- SliderControl -->
<g id="node15" class="node">
<title>SliderControl</title>
<path fill="white" stroke="black" d="M2098.6,-952.8C2098.6,-952.8 1959.4,-952.8 1959.4,-952.8 1953.4,-952.8 1947.4,-946.8 1947.4,-940.8 1947.4,-940.8 1947.4,-918.9 1947.4,-918.9 1947.4,-912.9 1953.4,-906.9 1959.4,-906.9 1959.4,-906.9 2098.6,-906.9 2098.6,-906.9 2104.6,-906.9 2110.6,-912.9 2110.6,-918.9 2110.6,-918.9 2110.6,-940.8 2110.6,-940.8 2110.6,-946.8 2104.6,-952.8 2098.6,-952.8"/>
<text text-anchor="middle" x="2029" y="-932.3" font-family="Arial" font-size="14.00">SliderControl</text>
<text text-anchor="middle" x="2029" y="-916.55" font-family="Arial" font-size="14.00">(Parameter Control)</text>
</g>
<!-- AudioCore -->
<g id="node21" class="node">
<title>AudioCore</title>
<path fill="white" stroke="black" d="M1283.47,-497.1C1283.47,-497.1 1152.53,-497.1 1152.53,-497.1 1146.53,-497.1 1140.53,-491.1 1140.53,-485.1 1140.53,-485.1 1140.53,-463.2 1140.53,-463.2 1140.53,-457.2 1146.53,-451.2 1152.53,-451.2 1152.53,-451.2 1283.47,-451.2 1283.47,-451.2 1289.47,-451.2 1295.47,-457.2 1295.47,-463.2 1295.47,-463.2 1295.47,-485.1 1295.47,-485.1 1295.47,-491.1 1289.47,-497.1 1283.47,-497.1"/>
<text text-anchor="middle" x="1218" y="-476.6" font-family="Arial" font-size="14.00">AudioCore</text>
<text text-anchor="middle" x="1218" y="-460.85" font-family="Arial" font-size="14.00">(Core Audio Logic)</text>
</g>
<!-- AudioStore&#45;&gt;AudioCore -->
<g id="edge17" class="edge">
<title>AudioStore&#45;&gt;AudioCore</title>
<path fill="none" stroke="black" d="M1178.75,-621.65C1178.75,-621.65 1178.75,-509.06 1178.75,-509.06"/>
<polygon fill="black" stroke="black" points="1182.25,-509.06 1178.75,-499.06 1175.25,-509.06 1182.25,-509.06"/>
<text text-anchor="middle" x="1897.12" y="-570.55" font-family="Arial" font-size="9.00" fill="#4d4d4d">controls</text>
</g>
<!-- AudioSynth -->
<g id="node23" class="node">
<title>AudioSynth</title>
<path fill="white" stroke="black" d="M1283.22,-354.7C1283.22,-354.7 1144.78,-354.7 1144.78,-354.7 1138.78,-354.7 1132.78,-348.7 1132.78,-342.7 1132.78,-342.7 1132.78,-320.8 1132.78,-320.8 1132.78,-314.8 1138.78,-308.8 1144.78,-308.8 1144.78,-308.8 1283.22,-308.8 1283.22,-308.8 1289.22,-308.8 1295.22,-314.8 1295.22,-320.8 1295.22,-320.8 1295.22,-342.7 1295.22,-342.7 1295.22,-348.7 1289.22,-354.7 1283.22,-354.7"/>
<text text-anchor="middle" x="1214" y="-334.2" font-family="Arial" font-size="14.00">AudioSynth</text>
<text text-anchor="middle" x="1214" y="-318.45" font-family="Arial" font-size="14.00">(Sound Generation)</text>
</g>
<!-- AudioParametersStore&#45;&gt;AudioSynth -->
<g id="edge18" class="edge">
<title>AudioParametersStore&#45;&gt;AudioSynth</title>
<path fill="none" stroke="black" d="M1037.59,-645C1063.63,-645 1085.12,-645 1085.12,-645 1085.12,-645 1085.12,-332 1085.12,-332 1085.12,-332 1120.87,-332 1120.87,-332"/>
<polygon fill="black" stroke="black" points="1120.87,-335.5 1130.87,-332 1120.87,-328.5 1120.87,-335.5"/>
<text text-anchor="middle" x="944.38" y="-470.85" font-family="Arial" font-size="9.00" fill="#4d4d4d">configures</text>
</g>
<!-- AudioScheduler -->
<g id="node22" class="node">
<title>AudioScheduler</title>
<path fill="white" stroke="black" d="M1063.22,-354.7C1063.22,-354.7 948.77,-354.7 948.77,-354.7 942.77,-354.7 936.77,-348.7 936.77,-342.7 936.77,-342.7 936.77,-320.8 936.77,-320.8 936.77,-314.8 942.77,-308.8 948.77,-308.8 948.77,-308.8 1063.22,-308.8 1063.22,-308.8 1069.22,-308.8 1075.22,-314.8 1075.22,-320.8 1075.22,-320.8 1075.22,-342.7 1075.22,-342.7 1075.22,-348.7 1069.22,-354.7 1063.22,-354.7"/>
<text text-anchor="middle" x="1006" y="-334.2" font-family="Arial" font-size="14.00">AudioScheduler</text>
<text text-anchor="middle" x="1006" y="-318.45" font-family="Arial" font-size="14.00">(Audio Timing)</text>
</g>
<!-- TransportStore&#45;&gt;AudioScheduler -->
<g id="edge19" class="edge">
<title>TransportStore&#45;&gt;AudioScheduler</title>
<path fill="none" stroke="black" d="M753.38,-621.78C753.38,-590.56 753.38,-539 753.38,-539 753.38,-539 987,-539 987,-539 987,-539 987,-366.63 987,-366.63"/>
<polygon fill="black" stroke="black" points="990.5,-366.63 987,-356.63 983.5,-366.63 990.5,-366.63"/>
<text text-anchor="middle" x="1797.38" y="-470.85" font-family="Arial" font-size="9.00" fill="#4d4d4d">sync</text>
</g>
<!-- ClockSync -->
<g id="node25" class="node">
<title>ClockSync</title>
<path fill="white" stroke="black" d="M869.85,-212.3C869.85,-212.3 720.15,-212.3 720.15,-212.3 714.15,-212.3 708.15,-206.3 708.15,-200.3 708.15,-200.3 708.15,-178.4 708.15,-178.4 708.15,-172.4 714.15,-166.4 720.15,-166.4 720.15,-166.4 869.85,-166.4 869.85,-166.4 875.85,-166.4 881.85,-172.4 881.85,-178.4 881.85,-178.4 881.85,-200.3 881.85,-200.3 881.85,-206.3 875.85,-212.3 869.85,-212.3"/>
<text text-anchor="middle" x="795" y="-191.8" font-family="Arial" font-size="14.00">ClockSync</text>
<text text-anchor="middle" x="795" y="-176.05" font-family="Arial" font-size="14.00">(Timing Coordination)</text>
</g>
<!-- TransportStore&#45;&gt;ClockSync -->
<g id="edge20" class="edge">
<title>TransportStore&#45;&gt;ClockSync</title>
<path fill="none" stroke="black" d="M682.27,-621.81C682.27,-528.87 682.27,-189 682.27,-189 682.27,-189 696.34,-189 696.34,-189"/>
<polygon fill="black" stroke="black" points="696.34,-192.5 706.34,-189 696.34,-185.5 696.34,-192.5"/>
<text text-anchor="middle" x="747.12" y="-399.65" font-family="Arial" font-size="9.00" fill="#4d4d4d">provides timing</text>
</g>
<!-- VisualizationStore&#45;&gt;AudioStore -->
<g id="edge21" class="edge">
<title>VisualizationStore&#45;&gt;AudioStore</title>
<path fill="none" stroke="black" d="M1332.05,-645C1332.05,-645 1228.94,-645 1228.94,-645"/>
<polygon fill="black" stroke="black" points="1228.94,-641.5 1218.94,-645 1228.94,-648.5 1228.94,-641.5"/>
</g>
<!-- AudioCore&#45;&gt;AudioScheduler -->
<g id="edge22" class="edge">
<title>AudioCore&#45;&gt;AudioScheduler</title>
<path fill="none" stroke="black" d="M1140.43,-467C1098.91,-467 1056.22,-467 1056.22,-467 1056.22,-467 1056.22,-366.51 1056.22,-366.51"/>
<polygon fill="black" stroke="black" points="1059.73,-366.51 1056.23,-356.51 1052.73,-366.51 1059.73,-366.51"/>
<text text-anchor="middle" x="1147.38" y="-399.65" font-family="Arial" font-size="9.00" fill="#4d4d4d">schedules with</text>
</g>
<!-- AudioCore&#45;&gt;AudioSynth -->
<g id="edge23" class="edge">
<title>AudioCore&#45;&gt;AudioSynth</title>
<path fill="none" stroke="black" d="M1217.88,-450.95C1217.88,-450.95 1217.88,-366.45 1217.88,-366.45"/>
<polygon fill="black" stroke="black" points="1221.38,-366.45 1217.88,-356.45 1214.38,-366.45 1221.38,-366.45"/>
<text text-anchor="middle" x="1257.12" y="-399.65" font-family="Arial" font-size="9.00" fill="#4d4d4d">controls</text>
</g>
<!-- AudioCore&#45;&gt;Sequencer -->
<g id="edge24" class="edge">
<title>AudioCore&#45;&gt;Sequencer</title>
<path fill="none" stroke="black" d="M1140.16,-482C1037.9,-482 871.16,-482 871.16,-482 871.16,-482 871.16,-366.41 871.16,-366.41"/>
<polygon fill="black" stroke="black" points="874.66,-366.41 871.16,-356.41 867.66,-366.41 874.66,-366.41"/>
<text text-anchor="middle" x="1035.12" y="-399.65" font-family="Arial" font-size="9.00" fill="#4d4d4d">manages</text>
</g>
<!-- WebAudioAPI -->
<g id="node28" class="node">
<title>WebAudioAPI</title>
<path fill="white" stroke="black" d="M1464.6,-69.9C1464.6,-69.9 1331.4,-69.9 1331.4,-69.9 1325.4,-69.9 1319.4,-63.9 1319.4,-57.9 1319.4,-57.9 1319.4,-36 1319.4,-36 1319.4,-30 1325.4,-24 1331.4,-24 1331.4,-24 1464.6,-24 1464.6,-24 1470.6,-24 1476.6,-30 1476.6,-36 1476.6,-36 1476.6,-57.9 1476.6,-57.9 1476.6,-63.9 1470.6,-69.9 1464.6,-69.9"/>
<text text-anchor="middle" x="1398" y="-49.4" font-family="Arial" font-size="14.00">Web Audio API</text>
<text text-anchor="middle" x="1398" y="-33.65" font-family="Arial" font-size="14.00">(Audio Processing)</text>
</g>
<!-- AudioCore&#45;&gt;WebAudioAPI -->
<g id="edge29" class="edge">
<title>AudioCore&#45;&gt;WebAudioAPI</title>
<path fill="none" stroke="black" d="M1295.84,-463C1302.71,-463 1307.12,-463 1307.12,-463 1307.12,-463 1307.12,-47 1307.12,-47 1307.12,-47 1308.31,-47 1308.31,-47"/>
<polygon fill="black" stroke="black" points="1307.49,-50.5 1317.49,-47 1307.49,-43.5 1307.49,-50.5"/>
<text text-anchor="middle" x="1516.38" y="-257.25" font-family="Arial" font-size="9.00" fill="#4d4d4d">analyzes</text>
</g>
<!-- NoteMapping -->
<g id="node29" class="node">
<title>NoteMapping</title>
<path fill="white" stroke="black" d="M1970.97,-212.3C1970.97,-212.3 1843.03,-212.3 1843.03,-212.3 1837.03,-212.3 1831.03,-206.3 1831.03,-200.3 1831.03,-200.3 1831.03,-178.4 1831.03,-178.4 1831.03,-172.4 1837.03,-166.4 1843.03,-166.4 1843.03,-166.4 1970.97,-166.4 1970.97,-166.4 1976.97,-166.4 1982.97,-172.4 1982.97,-178.4 1982.97,-178.4 1982.97,-200.3 1982.97,-200.3 1982.97,-206.3 1976.97,-212.3 1970.97,-212.3"/>
<text text-anchor="middle" x="1907" y="-191.8" font-family="Arial" font-size="14.00">NoteMapping</text>
<text text-anchor="middle" x="1907" y="-176.05" font-family="Arial" font-size="14.00">(Note Generation)</text>
</g>
<!-- AudioCore&#45;&gt;NoteMapping -->
<g id="edge31" class="edge">
<title>AudioCore&#45;&gt;NoteMapping</title>
<path fill="none" stroke="black" d="M1295.67,-474C1468.56,-474 1869.99,-474 1869.99,-474 1869.99,-474 1869.99,-224.16 1869.99,-224.16"/>
<polygon fill="black" stroke="black" points="1873.49,-224.16 1869.99,-214.16 1866.49,-224.16 1873.49,-224.16"/>
<text text-anchor="middle" x="1667.75" y="-328.45" font-family="Arial" font-size="9.00" fill="#4d4d4d">uses</text>
</g>
<!-- Scales -->
<g id="node30" class="node">
<title>Scales</title>
<path fill="white" stroke="black" d="M2171.47,-212.3C2171.47,-212.3 2052.53,-212.3 2052.53,-212.3 2046.53,-212.3 2040.53,-206.3 2040.53,-200.3 2040.53,-200.3 2040.53,-178.4 2040.53,-178.4 2040.53,-172.4 2046.53,-166.4 2052.53,-166.4 2052.53,-166.4 2171.47,-166.4 2171.47,-166.4 2177.47,-166.4 2183.47,-172.4 2183.47,-178.4 2183.47,-178.4 2183.47,-200.3 2183.47,-200.3 2183.47,-206.3 2177.47,-212.3 2171.47,-212.3"/>
<text text-anchor="middle" x="2112" y="-191.8" font-family="Arial" font-size="14.00">Scales</text>
<text text-anchor="middle" x="2112" y="-176.05" font-family="Arial" font-size="14.00">(Musical Scales)</text>
</g>
<!-- AudioCore&#45;&gt;Scales -->
<g id="edge32" class="edge">
<title>AudioCore&#45;&gt;Scales</title>
<path fill="none" stroke="black" d="M1295.62,-486C1506.71,-486 2075.56,-486 2075.56,-486 2075.56,-486 2075.56,-224.14 2075.56,-224.14"/>
<polygon fill="black" stroke="black" points="2079.06,-224.14 2075.56,-214.14 2072.06,-224.14 2079.06,-224.14"/>
<text text-anchor="middle" x="1803.75" y="-328.45" font-family="Arial" font-size="9.00" fill="#4d4d4d">uses</text>
</g>
<!-- AudioScheduler&#45;&gt;ClockSync -->
<g id="edge25" class="edge">
<title>AudioScheduler&#45;&gt;ClockSync</title>
<path fill="none" stroke="black" d="M936.5,-332C921.13,-332 909.31,-332 909.31,-332 909.31,-332 909.31,-189 909.31,-189 909.31,-189 893.74,-189 893.74,-189"/>
<polygon fill="black" stroke="black" points="893.74,-185.5 883.74,-189 893.74,-192.5 893.74,-185.5"/>
<text text-anchor="middle" x="869" y="-257.25" font-family="Arial" font-size="9.00" fill="#4d4d4d">syncs with</text>
</g>
<!-- SphereActivationClock -->
<g id="node26" class="node">
<title>SphereActivationClock</title>
<path fill="white" stroke="black" d="M1106.47,-212.3C1106.47,-212.3 951.52,-212.3 951.52,-212.3 945.52,-212.3 939.52,-206.3 939.52,-200.3 939.52,-200.3 939.52,-178.4 939.52,-178.4 939.52,-172.4 945.52,-166.4 951.52,-166.4 951.52,-166.4 1106.47,-166.4 1106.47,-166.4 1112.47,-166.4 1118.47,-172.4 1118.47,-178.4 1118.47,-178.4 1118.47,-200.3 1118.47,-200.3 1118.47,-206.3 1112.47,-212.3 1106.47,-212.3"/>
<text text-anchor="middle" x="1029" y="-191.8" font-family="Arial" font-size="14.00">SphereActivationClock</text>
<text text-anchor="middle" x="1029" y="-176.05" font-family="Arial" font-size="14.00">(Visual&#45;Audio Sync)</text>
</g>
<!-- AudioScheduler&#45;&gt;SphereActivationClock -->
<g id="edge26" class="edge">
<title>AudioScheduler&#45;&gt;SphereActivationClock</title>
<path fill="none" stroke="black" d="M1007.38,-308.55C1007.38,-308.55 1007.38,-224.05 1007.38,-224.05"/>
<polygon fill="black" stroke="black" points="1010.88,-224.05 1007.38,-214.05 1003.88,-224.05 1010.88,-224.05"/>
<text text-anchor="middle" x="1041" y="-257.25" font-family="Arial" font-size="9.00" fill="#4d4d4d">coordinates</text>
</g>
<!-- ToneJS -->
<g id="node27" class="node">
<title>ToneJS</title>
<path fill="white" stroke="black" d="M1463.22,-212.3C1463.22,-212.3 1330.78,-212.3 1330.78,-212.3 1324.78,-212.3 1318.78,-206.3 1318.78,-200.3 1318.78,-200.3 1318.78,-178.4 1318.78,-178.4 1318.78,-172.4 1324.78,-166.4 1330.78,-166.4 1330.78,-166.4 1463.22,-166.4 1463.22,-166.4 1469.22,-166.4 1475.22,-172.4 1475.22,-178.4 1475.22,-178.4 1475.22,-200.3 1475.22,-200.3 1475.22,-206.3 1469.22,-212.3 1463.22,-212.3"/>
<text text-anchor="middle" x="1397" y="-191.8" font-family="Arial" font-size="14.00">Tone.js</text>
<text text-anchor="middle" x="1397" y="-176.05" font-family="Arial" font-size="14.00">(Synthesis Engine)</text>
</g>
<!-- AudioSynth&#45;&gt;ToneJS -->
<g id="edge27" class="edge">
<title>AudioSynth&#45;&gt;ToneJS</title>
<path fill="none" stroke="black" d="M1295.68,-324C1312.7,-324 1325.59,-324 1325.59,-324 1325.59,-324 1325.59,-224.01 1325.59,-224.01"/>
<polygon fill="black" stroke="black" points="1329.09,-224.01 1325.59,-214.01 1322.09,-224.01 1329.09,-224.01"/>
<text text-anchor="middle" x="1314.75" y="-257.25" font-family="Arial" font-size="9.00" fill="#4d4d4d">uses</text>
</g>
<!-- AudioSynth&#45;&gt;NoteMapping -->
<g id="edge33" class="edge">
<title>AudioSynth&#45;&gt;NoteMapping</title>
<path fill="none" stroke="black" d="M1295.58,-339C1467.34,-339 1850.51,-339 1850.51,-339 1850.51,-339 1850.51,-224.25 1850.51,-224.25"/>
<polygon fill="black" stroke="black" points="1854.01,-224.25 1850.51,-214.25 1847.01,-224.25 1854.01,-224.25"/>
<text text-anchor="middle" x="1683.75" y="-257.25" font-family="Arial" font-size="9.00" fill="#4d4d4d">uses</text>
</g>
<!-- ToneJS&#45;&gt;WebAudioAPI -->
<g id="edge28" class="edge">
<title>ToneJS&#45;&gt;WebAudioAPI</title>
<path fill="none" stroke="black" d="M1397.31,-166.15C1397.31,-166.15 1397.31,-81.65 1397.31,-81.65"/>
<polygon fill="black" stroke="black" points="1400.81,-81.65 1397.31,-71.65 1393.81,-81.65 1400.81,-81.65"/>
<text text-anchor="middle" x="1417.62" y="-114.85" font-family="Arial" font-size="9.00" fill="#4d4d4d">generates</text>
</g>
</g>
</svg>
